<?xml version="1.0" encoding="UTF-8" ?>
<!DOCTYPE svg PUBLIC "-//W3C//DTD SVG 1.1//EN" "http://www.w3.org/Graphics/SVG/1.1/DTD/svg11.dtd">
<svg width="623pt" height="617pt" viewBox="0 0 623 617" version="1.1" xmlns="http://www.w3.org/2000/svg">
<g id="#8e5343eb">
<path fill="#8e5343" opacity="0.92" d=" M 284.91 21.75 C 297.07 16.66 310.53 13.31 322.84 9.15 C 338.04 14.64 354.91 16.19 369.18 23.95 C 358.57 25.65 349.57 18.23 339.19 17.64 C 337.87 17.39 336.54 17.16 335.22 16.91 C 331.14 14.55 326.48 13.78 321.81 13.95 C 309.60 14.57 296.89 26.21 284.91 21.75 Z" />
</g>
<g id="#d9ba8ffb">
<path fill="#d9ba8f" opacity="1.00" d=" M 284.91 21.75 C 296.89 26.21 309.60 14.57 321.81 13.95 C 332.04 17.31 329.72 30.81 325.03 38.01 C 319.87 48.16 311.96 28.99 303.35 32.88 C 304.23 39.16 301.23 45.22 302.39 51.55 C 300.50 54.38 292.95 58.02 297.95 61.41 C 293.00 66.36 288.41 72.00 282.13 75.32 C 283.43 61.43 290.89 48.60 293.10 34.99 C 292.65 24.77 278.79 23.39 271.63 27.78 C 264.16 25.23 256.06 28.39 248.72 25.32 C 259.90 24.26 271.27 24.58 282.31 22.32 C 282.96 22.18 284.26 21.89 284.91 21.75 Z" />
</g>
<g id="#d38f6ef8">
<path fill="#d38f6e" opacity="0.97" d=" M 321.81 13.95 C 326.48 13.78 331.14 14.55 335.22 16.91 C 335.25 27.83 326.92 42.00 336.56 50.44 C 345.37 53.87 338.22 41.53 337.45 37.68 C 334.63 28.67 347.60 32.42 353.09 32.58 C 351.63 27.78 348.95 19.34 342.92 24.90 C 338.14 28.53 339.06 21.04 339.19 17.64 C 349.57 18.23 358.57 25.65 369.18 23.95 L 370.05 23.98 C 372.49 26.69 372.65 31.39 369.69 33.76 C 360.77 41.10 352.08 48.75 342.66 55.45 C 334.34 55.15 326.02 54.88 317.73 54.14 C 310.31 53.00 303.70 57.31 297.95 61.41 C 292.95 58.02 300.50 54.38 302.39 51.55 C 301.23 45.22 304.23 39.16 303.35 32.88 C 311.96 28.99 319.87 48.16 325.03 38.01 C 329.72 30.81 332.04 17.31 321.81 13.95 Z" />
</g>
<g id="#ecb497ff">
<path fill="#ecb497" opacity="1.00" d=" M 335.22 16.91 C 336.54 17.16 337.87 17.39 339.19 17.64 C 339.06 21.04 338.14 28.53 342.92 24.90 C 348.95 19.34 351.63 27.78 353.09 32.58 C 347.60 32.42 334.63 28.67 337.45 37.68 C 338.22 41.53 345.37 53.87 336.56 50.44 C 326.92 42.00 335.25 27.83 335.22 16.91 Z" />
</g>
<g id="#594c32d9">
<path fill="#594c32" opacity="0.85" d=" M 220.98 23.99 C 239.60 18.99 262.29 22.13 282.31 22.32 C 271.27 24.58 259.90 24.26 248.72 25.32 C 246.89 25.08 245.07 24.86 243.24 24.71 C 235.84 23.92 228.40 23.91 220.98 23.99 Z" />
</g>
<g id="#97936de8">
<path fill="#97936d" opacity="0.91" d=" M 154.83 41.93 C 175.14 31.48 198.26 26.28 220.98 23.99 C 228.40 23.91 235.84 23.92 243.24 24.71 C 212.81 24.12 184.21 36.07 154.83 41.93 Z" />
</g>
<g id="#8a6246ee">
<path fill="#8a6246" opacity="0.93" d=" M 370.05 23.98 C 385.17 27.14 400.45 30.48 416.00 29.98 C 420.03 29.67 425.40 29.62 428.16 33.20 C 409.11 32.42 385.66 25.86 368.76 39.81 C 365.59 42.74 362.18 45.64 360.25 49.58 C 356.71 55.74 349.13 57.13 342.66 55.45 C 352.08 48.75 360.77 41.10 369.69 33.76 C 372.65 31.39 372.49 26.69 370.05 23.98 Z" />
</g>
<g id="#ecedd4fe">
<path fill="#ecedd4" opacity="1.00" d=" M 154.83 41.93 C 184.21 36.07 212.81 24.12 243.24 24.71 C 245.07 24.86 246.89 25.08 248.72 25.32 C 256.06 28.39 264.16 25.23 271.63 27.78 C 275.68 32.60 287.00 47.42 274.58 46.65 C 265.40 53.15 270.07 75.24 282.13 75.32 C 288.41 72.00 293.00 66.36 297.95 61.41 C 303.70 57.31 310.31 53.00 317.73 54.14 C 319.87 67.44 336.55 55.89 344.36 59.68 C 350.91 63.22 361.76 57.42 360.25 49.58 C 362.18 45.64 365.59 42.74 368.76 39.81 C 385.03 37.88 402.55 39.31 416.73 48.21 C 422.22 56.40 409.59 69.61 420.00 75.00 C 426.85 82.82 437.07 70.56 444.27 76.85 C 440.72 81.68 435.98 85.69 433.61 91.31 C 427.88 99.08 406.42 99.08 412.35 112.56 C 419.66 111.90 426.86 105.35 434.57 103.38 C 438.66 108.61 428.76 110.73 426.69 115.04 C 423.95 127.28 410.51 128.99 401.41 134.41 C 397.16 140.58 399.38 148.63 403.01 154.53 C 401.78 157.56 400.31 160.56 399.73 163.81 C 398.61 174.88 398.28 186.02 397.67 197.13 C 397.00 197.14 395.64 197.17 394.97 197.18 C 393.95 195.84 392.94 194.50 391.92 193.17 C 388.52 181.18 380.51 164.78 391.48 154.52 C 395.12 152.14 398.88 149.15 397.02 143.90 C 390.98 145.01 388.58 151.56 384.20 155.14 C 382.70 151.62 381.46 147.92 378.93 144.96 C 379.48 125.98 376.13 106.92 379.16 88.02 C 381.93 79.86 377.20 68.26 367.45 68.79 C 367.04 73.22 368.51 77.94 366.93 82.16 C 363.16 80.54 359.93 77.91 356.38 75.90 C 358.21 85.23 348.55 87.99 342.26 91.21 C 338.46 97.37 344.54 106.86 338.73 111.93 C 330.98 111.38 319.38 102.60 314.55 111.64 C 312.07 115.49 317.45 116.16 319.99 117.06 C 329.53 120.67 339.15 124.65 347.72 130.23 C 347.62 134.79 344.80 141.47 350.79 143.29 C 357.36 152.61 362.71 164.81 360.00 176.34 C 355.43 171.20 352.62 164.75 348.12 159.57 C 341.82 152.08 331.64 148.07 327.23 139.03 C 323.26 133.32 316.12 138.81 314.67 143.76 C 311.67 146.55 306.28 145.48 303.70 148.96 C 299.36 154.87 293.62 159.42 287.77 163.72 C 277.56 170.24 270.03 180.19 262.95 189.79 C 259.82 197.59 247.50 197.79 247.10 206.90 C 247.33 211.05 251.52 212.18 253.95 214.28 C 251.60 221.76 236.12 222.87 239.56 233.57 C 239.10 239.82 244.20 256.11 232.06 252.40 C 237.03 264.40 223.57 275.76 212.15 271.78 C 205.46 268.88 203.96 283.57 197.14 280.08 C 199.64 276.91 202.06 271.04 196.18 270.11 C 191.83 275.83 187.66 281.87 185.53 288.81 C 177.14 286.33 166.76 285.83 161.96 294.96 C 159.14 299.74 162.39 309.64 154.14 309.71 C 147.09 302.98 138.74 295.32 129.69 294.09 C 133.16 287.57 141.81 289.94 147.65 288.68 C 152.94 285.95 150.87 278.55 155.24 275.11 C 159.05 275.03 161.42 279.42 164.81 279.85 C 166.80 275.57 167.95 270.90 169.07 266.32 C 165.25 267.12 159.48 266.11 160.97 261.10 C 171.36 261.62 182.12 264.62 192.43 262.52 C 199.39 249.05 216.59 248.93 227.27 240.23 C 229.43 231.72 233.96 224.14 237.22 216.12 C 221.30 215.71 205.31 216.73 189.48 214.50 C 185.16 212.27 182.48 215.86 179.90 218.37 C 182.27 208.19 169.40 206.53 162.34 210.17 C 151.55 214.19 139.84 213.91 128.58 213.52 C 124.28 213.98 125.24 218.69 125.56 221.71 C 114.61 230.06 97.80 217.77 88.51 229.17 C 86.42 230.20 84.18 230.86 81.95 231.54 C 99.81 246.14 124.74 249.44 146.93 245.87 C 157.40 246.17 162.29 236.44 167.08 228.98 C 170.33 226.49 173.29 223.47 177.17 221.96 C 172.63 235.37 162.89 250.05 148.16 253.09 C 134.12 250.69 120.70 261.75 107.06 255.33 C 103.88 259.48 103.11 267.36 96.73 269.48 C 95.07 269.11 93.43 268.66 91.80 268.20 C 95.72 262.41 89.65 259.09 84.62 258.32 C 98.91 247.31 71.41 232.97 65.70 247.38 C 47.58 242.02 39.65 222.68 34.97 206.12 C 36.89 196.79 26.93 191.80 23.05 201.01 C 14.43 229.89 12.13 261.99 22.11 290.89 C 25.70 303.58 37.21 312.28 49.64 315.42 C 62.31 320.33 69.36 302.67 82.31 307.59 C 88.12 308.94 87.24 315.84 89.10 320.13 C 94.42 319.34 98.31 311.36 103.71 314.20 C 107.73 319.93 104.16 327.93 107.02 334.21 C 118.91 325.34 113.31 304.41 127.44 297.71 C 122.47 312.89 113.41 328.01 117.32 344.69 C 120.44 351.64 114.06 356.41 110.65 361.52 C 104.31 356.89 96.60 357.95 89.28 358.77 C 83.39 353.48 89.75 343.91 89.03 337.10 C 73.90 332.41 56.02 334.01 43.85 322.23 C 36.42 315.45 25.26 313.10 20.93 303.11 C 15.00 291.90 10.15 280.14 10.24 267.26 C 11.36 258.21 11.03 249.08 11.01 239.98 C 11.29 232.98 12.12 225.96 14.38 219.29 C 16.14 213.27 17.67 207.16 18.09 200.88 C 18.42 198.59 19.17 196.34 20.31 194.32 C 22.74 191.27 23.27 187.33 22.46 183.56 C 27.34 165.42 33.41 145.99 45.10 131.22 C 49.50 130.27 52.27 126.51 52.27 122.05 C 54.11 116.54 58.06 111.11 63.07 108.20 C 67.57 108.11 70.44 104.49 70.20 100.11 C 70.40 99.87 70.81 99.37 71.01 99.13 C 76.86 97.09 80.91 91.97 84.03 86.86 C 87.40 83.51 90.24 78.62 95.05 77.22 C 98.85 77.48 101.60 74.77 102.44 71.25 C 107.91 67.09 113.38 61.54 119.96 59.11 C 123.85 59.11 126.50 56.38 128.22 53.19 L 129.00 53.07 C 136.05 52.55 142.17 48.45 148.19 45.13 C 150.30 43.86 152.22 42.00 154.83 41.93 M 206.82 67.03 C 214.02 72.29 221.51 81.57 217.77 90.84 C 209.75 88.40 202.49 82.36 196.67 76.19 C 186.31 71.04 195.60 86.68 189.39 83.57 C 177.95 78.28 165.11 75.08 152.47 76.55 C 140.61 79.62 123.76 75.30 114.63 84.45 C 111.72 87.58 107.83 91.36 103.80 93.73 C 102.87 102.64 88.13 89.24 92.09 103.05 C 83.22 108.48 76.10 116.46 69.04 123.67 C 61.18 120.85 52.28 130.27 56.98 138.01 C 57.43 153.56 62.77 169.69 75.26 179.76 C 77.90 181.38 83.38 188.15 84.11 181.84 C 88.03 186.58 91.21 192.91 97.60 194.49 C 120.09 202.72 144.56 208.78 168.32 202.74 C 184.88 201.78 199.23 191.03 210.72 179.76 C 212.67 168.12 223.19 158.75 219.70 146.22 C 219.92 141.91 220.93 134.44 227.03 136.00 C 226.58 143.89 222.74 151.26 223.02 159.26 C 228.83 154.16 230.04 145.63 235.21 139.87 C 240.45 138.41 243.00 130.78 246.85 126.79 C 251.27 116.52 271.29 107.04 259.70 95.17 C 252.14 73.63 225.38 71.92 206.82 67.03 Z" />
</g>
<g id="#e2e1b0fb">
<path fill="#e2e1b0" opacity="1.00" d=" M 271.63 27.78 C 278.79 23.39 292.65 24.77 293.10 34.99 C 290.89 48.60 283.43 61.43 282.13 75.32 C 270.07 75.24 265.40 53.15 274.58 46.65 C 287.00 47.42 275.68 32.60 271.63 27.78 Z" />
</g>
<g id="#e5e6b5fd">
<path fill="#e5e6b5" opacity="1.00" d=" M 368.76 39.81 C 385.66 25.86 409.11 32.42 428.16 33.20 L 428.80 33.31 C 435.62 36.79 442.93 39.20 449.71 42.80 C 452.44 47.43 459.48 52.54 455.04 57.99 C 451.66 66.04 442.41 52.36 438.45 59.29 C 432.84 58.01 428.02 61.91 425.72 66.66 C 437.24 64.59 444.67 78.29 456.08 75.07 C 466.71 71.16 476.44 77.78 486.88 78.00 C 493.41 76.14 490.98 67.99 491.12 62.91 C 500.30 64.08 492.78 76.02 496.04 81.02 C 506.87 88.80 509.54 102.46 515.30 113.69 C 519.06 120.73 530.77 126.00 521.80 134.16 C 519.59 133.78 517.39 133.34 515.22 132.81 C 514.34 131.41 513.44 130.02 512.42 128.72 C 508.90 122.52 502.42 119.53 496.25 116.67 C 488.34 106.17 474.41 109.60 463.16 108.75 C 456.60 107.87 445.23 105.48 441.35 112.02 C 441.29 114.60 439.22 115.19 437.01 115.38 C 433.99 114.87 428.05 118.93 426.69 115.04 C 428.76 110.73 438.66 108.61 434.57 103.38 C 440.69 98.77 453.74 98.78 452.11 87.96 C 445.72 87.86 439.95 91.67 433.61 91.31 C 435.98 85.69 440.72 81.68 444.27 76.85 C 437.07 70.56 426.85 82.82 420.00 75.00 C 409.59 69.61 422.22 56.40 416.73 48.21 C 402.55 39.31 385.03 37.88 368.76 39.81 Z" />
</g>
<g id="#7a6e48e1">
<path fill="#7a6e48" opacity="0.88" d=" M 428.80 33.31 C 440.33 31.60 451.22 39.95 460.89 41.95 C 457.15 42.19 453.42 42.47 449.71 42.80 C 442.93 39.20 435.62 36.79 428.80 33.31 Z" />
</g>
<g id="#dcd696fc">
<path fill="#dcd696" opacity="1.00" d=" M 449.71 42.80 C 453.42 42.47 457.15 42.19 460.89 41.95 C 462.12 42.20 463.10 43.10 463.90 44.03 C 466.04 47.72 470.31 48.80 474.10 47.00 L 474.74 47.31 C 486.09 57.64 502.91 58.46 513.53 69.79 C 526.24 81.57 534.05 96.58 532.61 114.04 C 524.15 121.56 541.41 140.57 526.05 141.19 C 524.59 138.87 523.20 136.51 521.80 134.16 C 530.77 126.00 519.06 120.73 515.30 113.69 C 509.54 102.46 506.87 88.80 496.04 81.02 C 492.78 76.02 500.30 64.08 491.12 62.91 C 490.98 67.99 493.41 76.14 486.88 78.00 C 476.44 77.78 466.71 71.16 456.08 75.07 C 444.67 78.29 437.24 64.59 425.72 66.66 C 428.02 61.91 432.84 58.01 438.45 59.29 C 442.41 52.36 451.66 66.04 455.04 57.99 C 459.48 52.54 452.44 47.43 449.71 42.80 Z" />
</g>
<g id="#716340de">
<path fill="#716340" opacity="0.87" d=" M 463.90 44.03 C 467.25 43.68 472.26 43.38 474.10 47.00 C 470.31 48.80 466.04 47.72 463.90 44.03 Z" />
</g>
<g id="#827d5ce2">
<path fill="#827d5c" opacity="0.89" d=" M 129.00 53.07 C 133.95 48.80 141.26 45.25 148.19 45.13 C 142.17 48.45 136.05 52.55 129.00 53.07 Z" />
</g>
<g id="#746642ea">
<path fill="#746642" opacity="0.92" d=" M 474.74 47.31 C 491.63 50.61 508.20 59.27 521.00 71.09 C 518.55 70.41 516.06 69.94 513.53 69.79 C 502.91 58.46 486.09 57.64 474.74 47.31 Z" />
</g>
<g id="#c8c499f3">
<path fill="#c8c499" opacity="0.95" d=" M 342.66 55.45 C 349.13 57.13 356.71 55.74 360.25 49.58 C 361.76 57.42 350.91 63.22 344.36 59.68 C 336.55 55.89 319.87 67.44 317.73 54.14 C 326.02 54.88 334.34 55.15 342.66 55.45 Z" />
</g>
<g id="#858163e0">
<path fill="#858163" opacity="0.88" d=" M 119.96 59.11 C 120.33 55.48 124.66 52.55 128.22 53.19 C 126.50 56.38 123.85 59.11 119.96 59.11 Z" />
</g>
<g id="#e1e2bbfb">
<path fill="#e1e2bb" opacity="1.00" d=" M 206.82 67.03 C 225.38 71.92 252.14 73.63 259.70 95.17 C 247.25 89.59 251.26 104.84 254.00 111.98 C 250.36 110.18 245.61 105.85 242.12 110.28 C 241.64 114.44 245.01 117.93 245.11 122.09 C 236.09 120.72 233.37 110.73 227.41 105.58 C 228.70 117.15 224.29 131.78 235.21 139.87 C 230.04 145.63 228.83 154.16 223.02 159.26 C 222.74 151.26 226.58 143.89 227.03 136.00 C 220.93 134.44 219.92 141.91 219.70 146.22 C 217.49 130.04 209.14 115.35 199.29 102.61 C 197.39 100.27 195.15 98.25 193.00 96.14 C 172.33 74.95 140.69 83.90 114.63 84.45 C 123.76 75.30 140.61 79.62 152.47 76.55 C 165.11 75.08 177.95 78.28 189.39 83.57 C 195.60 86.68 186.31 71.04 196.67 76.19 C 202.49 82.36 209.75 88.40 217.77 90.84 C 221.51 81.57 214.02 72.29 206.82 67.03 Z" />
</g>
<g id="#e3e4b9fa">
<path fill="#e3e4b9" opacity="0.98" d=" M 367.45 68.79 C 377.20 68.26 381.93 79.86 379.16 88.02 C 368.32 94.03 355.74 101.68 357.73 115.79 C 342.24 113.86 353.19 126.26 359.03 130.98 C 359.32 131.23 359.91 131.73 360.21 131.98 C 362.91 140.00 353.20 138.00 350.79 143.29 C 344.80 141.47 347.62 134.79 347.72 130.23 C 339.15 124.65 329.53 120.67 319.99 117.06 C 317.45 116.16 312.07 115.49 314.55 111.64 C 319.38 102.60 330.98 111.38 338.73 111.93 C 344.54 106.86 338.46 97.37 342.26 91.21 C 348.55 87.99 358.21 85.23 356.38 75.90 C 359.93 77.91 363.16 80.54 366.93 82.16 C 368.51 77.94 367.04 73.22 367.45 68.79 Z" />
</g>
<g id="#a9935df6">
<path fill="#a9935d" opacity="0.96" d=" M 513.53 69.79 C 516.06 69.94 518.55 70.41 521.00 71.09 C 522.79 72.11 524.99 73.04 525.95 74.98 C 527.65 79.13 529.87 85.72 535.59 84.57 C 535.26 88.86 538.27 91.40 542.00 92.07 C 542.24 92.31 542.70 92.80 542.93 93.04 C 543.25 95.37 543.56 97.71 543.91 100.04 C 532.97 92.60 540.89 114.83 532.61 114.04 C 534.05 96.58 526.24 81.57 513.53 69.79 Z" />
</g>
<g id="#95926adf">
<path fill="#95926a" opacity="0.87" d=" M 95.05 77.22 C 95.03 73.79 99.17 70.91 102.44 71.25 C 101.60 74.77 98.85 77.48 95.05 77.22 Z" />
</g>
<g id="#5f4f32e5">
<path fill="#5f4f32" opacity="0.90" d=" M 525.95 74.98 C 531.48 79.46 542.20 83.55 542.00 92.07 C 538.27 91.40 535.26 88.86 535.59 84.57 C 529.87 85.72 527.65 79.13 525.95 74.98 Z" />
</g>
<g id="#b1bba4f5">
<path fill="#b1bba4" opacity="0.96" d=" M 114.63 84.45 C 140.69 83.90 172.33 74.95 193.00 96.14 C 187.40 95.79 182.16 93.67 176.87 91.98 C 154.53 82.36 123.96 83.24 107.91 103.83 C 104.29 105.14 100.66 106.42 97.13 107.95 C 97.85 104.53 95.90 99.97 92.09 103.05 C 88.13 89.24 102.87 102.64 103.80 93.73 C 107.83 91.36 111.72 87.58 114.63 84.45 Z" />
</g>
<g id="#6fc0c3fb">
<path fill="#6fc0c3" opacity="1.00" d=" M 107.91 103.83 C 123.96 83.24 154.53 82.36 176.87 91.98 C 189.16 103.94 202.45 119.27 201.36 137.39 C 195.67 120.93 183.68 106.10 166.91 100.14 C 162.63 98.21 148.51 96.18 158.11 100.88 C 141.68 101.56 119.58 101.11 110.07 117.16 C 100.16 129.69 96.59 147.68 102.33 162.73 C 99.74 161.31 97.03 159.63 93.94 159.95 C 94.15 167.11 106.66 183.61 92.91 177.02 C 85.53 178.40 85.96 172.65 85.32 167.73 C 85.14 166.56 84.96 165.39 84.81 164.23 C 80.23 140.65 94.34 121.10 107.91 103.83 Z" />
</g>
<g id="#8c8969d7">
<path fill="#8c8969" opacity="0.84" d=" M 71.01 99.13 C 73.82 93.82 78.68 89.40 84.03 86.86 C 80.91 91.97 76.86 97.09 71.01 99.13 Z" />
</g>
<g id="#ccc78bf7">
<path fill="#ccc78b" opacity="0.97" d=" M 357.73 115.79 C 355.74 101.68 368.32 94.03 379.16 88.02 C 376.13 106.92 379.48 125.98 378.93 144.96 C 374.33 137.39 381.23 124.48 371.67 120.25 C 365.61 119.84 359.84 124.95 359.03 130.98 C 353.19 126.26 342.24 113.86 357.73 115.79 Z" />
</g>
<g id="#b9b67bf5">
<path fill="#b9b67b" opacity="0.96" d=" M 433.61 91.31 C 439.95 91.67 445.72 87.86 452.11 87.96 C 453.74 98.78 440.69 98.77 434.57 103.38 C 426.86 105.35 419.66 111.90 412.35 112.56 C 406.42 99.08 427.88 99.08 433.61 91.31 Z" />
</g>
<g id="#68a3a1f6">
<path fill="#68a3a1" opacity="0.96" d=" M 176.87 91.98 C 182.16 93.67 187.40 95.79 193.00 96.14 C 195.15 98.25 197.39 100.27 199.29 102.61 C 193.41 111.50 209.09 119.09 208.76 128.87 C 207.08 146.48 204.16 166.60 188.97 178.03 C 193.39 164.68 202.98 152.07 201.36 137.39 C 202.45 119.27 189.16 103.94 176.87 91.98 Z" />
</g>
<g id="#85683af9">
<path fill="#85683a" opacity="0.98" d=" M 542.93 93.04 C 558.54 107.84 573.62 124.62 581.57 144.97 C 580.84 152.31 582.59 159.64 586.12 166.05 C 585.57 176.26 568.98 169.97 572.96 183.10 C 581.28 173.24 588.24 188.96 588.02 197.04 C 588.31 206.46 586.88 219.18 579.99 225.80 C 566.57 220.73 564.80 237.57 559.39 245.28 C 559.21 229.36 552.31 247.09 551.94 253.12 C 557.84 251.00 562.03 245.74 568.01 243.78 C 568.96 249.80 566.28 255.33 564.95 261.02 C 577.54 262.86 580.06 247.06 588.04 240.79 C 584.83 261.28 567.34 278.68 547.15 282.92 C 547.02 280.55 547.66 277.00 544.14 278.28 C 535.40 273.88 553.16 268.70 554.17 261.88 C 540.55 261.76 529.21 270.05 516.90 274.58 C 516.22 274.81 514.86 275.26 514.17 275.49 C 508.79 274.54 513.54 265.60 506.89 266.30 C 513.75 263.79 527.91 267.09 526.67 255.73 C 526.06 266.00 532.95 249.91 538.74 254.39 C 542.78 243.26 560.62 231.26 548.91 219.05 C 553.87 215.69 558.63 212.01 563.81 208.98 C 566.64 213.53 571.36 222.24 577.73 218.79 C 576.50 212.06 580.55 203.46 574.34 198.48 C 575.63 189.16 564.26 200.58 561.27 193.69 C 555.67 184.34 570.16 178.57 567.27 169.73 C 560.98 160.97 555.17 151.96 550.83 142.08 C 548.08 143.83 547.10 147.63 545.17 150.26 C 544.84 144.95 544.34 139.66 543.72 134.38 C 548.49 124.60 556.00 135.09 561.01 139.00 C 571.66 146.13 565.42 124.29 560.70 124.73 C 554.00 132.31 559.80 120.31 556.59 116.45 C 554.43 110.44 549.52 105.91 544.96 101.62 C 544.70 101.22 544.18 100.44 543.91 100.04 C 543.56 97.71 543.25 95.37 542.93 93.04 Z" />
</g>
<g id="#c2be83f6">
<path fill="#c2be83" opacity="0.96" d=" M 254.00 111.98 C 251.26 104.84 247.25 89.59 259.70 95.17 C 271.29 107.04 251.27 116.52 246.85 126.79 C 243.00 130.78 240.45 138.41 235.21 139.87 C 224.29 131.78 228.70 117.15 227.41 105.58 C 233.37 110.73 236.09 120.72 245.11 122.09 C 245.01 117.93 241.64 114.44 242.12 110.28 C 245.61 105.85 250.36 110.18 254.00 111.98 Z" />
</g>
<g id="#8fdad9fe">
<path fill="#8fdad9" opacity="1.00" d=" M 158.11 100.88 C 148.51 96.18 162.63 98.21 166.91 100.14 C 183.68 106.10 195.67 120.93 201.36 137.39 C 202.98 152.07 193.39 164.68 188.97 178.03 C 187.06 180.08 185.16 182.14 183.26 184.20 C 162.44 201.09 132.87 201.50 108.62 192.49 C 101.73 191.83 88.65 182.63 92.91 177.02 C 106.66 183.61 94.15 167.11 93.94 159.95 C 97.03 159.63 99.74 161.31 102.33 162.73 C 104.72 165.97 106.85 169.38 108.97 172.80 C 108.77 177.96 113.26 182.04 118.30 182.01 C 124.73 184.51 130.69 188.81 137.76 189.28 C 144.12 190.40 151.16 192.28 157.28 189.25 C 172.37 183.20 185.81 171.82 191.15 156.12 C 195.10 132.62 179.64 109.57 158.11 100.88 Z" />
</g>
<g id="#c4b887f9">
<path fill="#c4b887" opacity="0.98" d=" M 532.61 114.04 C 540.89 114.83 532.97 92.60 543.91 100.04 C 544.18 100.44 544.70 101.22 544.96 101.62 C 538.66 111.16 535.74 124.87 543.72 134.38 C 544.34 139.66 544.84 144.95 545.17 150.26 C 547.10 147.63 548.08 143.83 550.83 142.08 C 555.17 151.96 560.98 160.97 567.27 169.73 C 570.16 178.57 555.67 184.34 561.27 193.69 C 564.26 200.58 575.63 189.16 574.34 198.48 C 573.85 198.84 572.86 199.55 572.36 199.91 C 567.27 198.52 562.08 199.44 557.17 200.93 C 551.01 188.39 552.18 171.00 554.98 156.03 C 549.89 154.38 550.88 159.45 550.75 163.14 C 545.58 158.79 538.50 139.77 530.75 149.29 C 529.20 146.57 527.64 143.87 526.05 141.19 C 541.41 140.57 524.15 121.56 532.61 114.04 Z" />
</g>
<g id="#918c6de8">
<path fill="#918c6d" opacity="0.91" d=" M 63.07 108.20 C 62.45 104.16 66.10 99.97 70.20 100.11 C 70.44 104.49 67.57 108.11 63.07 108.20 Z" />
</g>
<g id="#070907fd">
<path fill="#070907" opacity="1.00" d=" M 110.07 117.16 C 119.58 101.11 141.68 101.56 158.11 100.88 C 179.64 109.57 195.10 132.62 191.15 156.12 C 185.81 171.82 172.37 183.20 157.28 189.25 C 150.77 189.08 144.26 189.01 137.76 189.28 C 130.69 188.81 124.73 184.51 118.30 182.01 C 116.61 177.78 113.52 173.98 108.97 172.80 C 106.85 169.38 104.72 165.97 102.33 162.73 C 96.59 147.68 100.16 129.69 110.07 117.16 M 122.11 151.03 C 129.66 147.69 138.99 143.80 143.13 135.96 C 139.04 130.66 131.95 123.94 124.81 127.11 C 123.89 126.70 122.96 126.34 122.00 126.03 C 110.01 128.51 110.97 147.84 122.11 151.03 Z" />
</g>
<g id="#f4f4f3ff">
<path fill="#f4f4f3" opacity="1.00" d=" M 92.09 103.05 C 95.90 99.97 97.85 104.53 97.13 107.95 C 91.34 116.03 86.58 124.77 82.02 133.59 C 74.98 147.64 75.16 165.72 82.92 179.54 C 83.31 180.31 83.70 181.08 84.11 181.84 C 83.38 188.15 77.90 181.38 75.26 179.76 C 62.77 169.69 57.43 153.56 56.98 138.01 C 52.28 130.27 61.18 120.85 69.04 123.67 C 76.10 116.46 83.22 108.48 92.09 103.05 Z" />
</g>
<g id="#b1955bfc">
<path fill="#b1955b" opacity="1.00" d=" M 543.72 134.38 C 535.74 124.87 538.66 111.16 544.96 101.62 C 549.52 105.91 554.43 110.44 556.59 116.45 C 559.80 120.31 554.00 132.31 560.70 124.73 C 565.42 124.29 571.66 146.13 561.01 139.00 C 556.00 135.09 548.49 124.60 543.72 134.38 Z" />
</g>
<g id="#59736cf8">
<path fill="#59736c" opacity="0.97" d=" M 199.29 102.61 C 209.14 115.35 217.49 130.04 219.70 146.22 C 223.19 158.75 212.67 168.12 210.72 179.76 C 199.23 191.03 184.88 201.78 168.32 202.74 C 166.85 202.39 165.39 202.02 163.93 201.63 C 171.14 196.75 179.37 192.47 183.26 184.20 C 185.16 182.14 187.06 180.08 188.97 178.03 C 204.16 166.60 207.08 146.48 208.76 128.87 C 209.09 119.09 193.41 111.50 199.29 102.61 Z" />
</g>
<g id="#628989ed">
<path fill="#628989" opacity="0.93" d=" M 97.13 107.95 C 100.66 106.42 104.29 105.14 107.91 103.83 C 94.34 121.10 80.23 140.65 84.81 164.23 C 83.06 154.09 85.39 143.47 82.02 133.59 C 86.58 124.77 91.34 116.03 97.13 107.95 Z" />
</g>
<g id="#c6c491f8">
<path fill="#c6c491" opacity="0.97" d=" M 441.35 112.02 C 445.23 105.48 456.60 107.87 463.16 108.75 C 474.41 109.60 488.34 106.17 496.25 116.67 C 487.10 120.77 480.08 108.95 470.02 112.92 C 461.88 109.34 446.37 119.34 441.35 112.02 Z" />
</g>
<g id="#8a987ff3">
<path fill="#8a987f" opacity="0.95" d=" M 441.35 112.02 C 446.37 119.34 461.88 109.34 470.02 112.92 C 480.08 108.95 487.10 120.77 496.25 116.67 C 502.42 119.53 508.90 122.52 512.42 128.72 C 510.03 129.76 507.57 130.65 505.02 131.22 C 488.51 118.60 465.42 115.06 445.82 121.85 C 444.51 120.20 443.36 118.43 442.04 116.80 C 440.78 116.44 438.27 115.73 437.01 115.38 C 439.22 115.19 441.29 114.60 441.35 112.02 Z" />
</g>
<g id="#bbb98af7">
<path fill="#bbb98a" opacity="0.97" d=" M 401.41 134.41 C 410.51 128.99 423.95 127.28 426.69 115.04 C 428.05 118.93 433.99 114.87 437.01 115.38 C 438.27 115.73 440.78 116.44 442.04 116.80 C 428.44 126.81 404.61 132.93 405.17 153.26 C 404.63 153.57 403.55 154.21 403.01 154.53 C 399.38 148.63 397.16 140.58 401.41 134.41 Z" />
</g>
<g id="#59634ff5">
<path fill="#59634f" opacity="0.96" d=" M 405.17 153.26 C 404.61 132.93 428.44 126.81 442.04 116.80 C 443.36 118.43 444.51 120.20 445.82 121.85 C 429.68 128.69 419.67 144.02 405.17 153.26 Z" />
</g>
<g id="#6dbbbafe">
<path fill="#6dbbba" opacity="1.00" d=" M 445.82 121.85 C 465.42 115.06 488.51 118.60 505.02 131.22 C 510.18 143.93 525.21 152.30 522.96 167.96 C 520.07 175.10 529.33 191.20 517.64 193.29 C 527.08 157.51 485.24 122.62 451.83 138.76 C 425.32 149.77 421.01 187.05 438.09 207.96 C 453.77 230.02 488.59 230.43 507.19 211.72 C 515.62 216.99 495.00 224.09 492.82 229.87 C 478.88 231.91 464.79 230.63 450.82 230.65 C 445.00 228.23 440.10 224.01 434.09 221.98 C 429.10 209.43 413.22 208.39 405.34 198.64 C 400.21 184.96 412.52 171.59 408.80 157.74 C 404.13 165.46 404.64 174.95 402.42 183.45 C 401.28 176.94 400.49 170.37 399.73 163.81 C 400.31 160.56 401.78 157.56 403.01 154.53 C 403.55 154.21 404.63 153.57 405.17 153.26 C 419.67 144.02 429.68 128.69 445.82 121.85 Z" />
</g>
<g id="#957847f9">
<path fill="#957847" opacity="0.98" d=" M 359.03 130.98 C 359.84 124.95 365.61 119.84 371.67 120.25 C 381.23 124.48 374.33 137.39 378.93 144.96 C 381.99 161.08 379.50 180.50 391.92 193.17 C 392.94 194.50 393.95 195.84 394.97 197.18 C 395.50 199.80 395.83 202.46 396.05 205.14 C 390.76 201.64 386.64 195.91 380.08 194.77 C 385.75 226.77 400.75 256.62 410.43 287.71 C 409.78 292.65 409.21 297.89 406.36 302.15 C 398.92 264.86 383.48 229.47 368.29 195.20 C 379.83 188.01 368.37 171.54 365.13 161.89 C 358.88 153.91 370.71 148.34 365.80 141.26 C 364.27 138.00 363.12 134.29 360.21 131.98 C 359.91 131.73 359.32 131.23 359.03 130.98 Z" />
</g>
<g id="#9a987fea">
<path fill="#9a987f" opacity="0.92" d=" M 45.10 131.22 C 44.49 126.87 48.35 123.15 52.27 122.05 C 52.27 126.51 49.50 130.27 45.10 131.22 Z" />
</g>
<g id="#646353f6">
<path fill="#646353" opacity="0.96" d=" M 122.11 151.03 C 110.97 147.84 110.01 128.51 122.00 126.03 C 120.64 130.67 119.42 142.90 126.79 136.80 C 130.52 133.88 128.69 128.79 124.81 127.11 C 131.95 123.94 139.04 130.66 143.13 135.96 C 138.99 143.80 129.66 147.69 122.11 151.03 Z" />
</g>
<g id="#e4e4e4fc">
<path fill="#e4e4e4" opacity="1.00" d=" M 122.00 126.03 C 122.96 126.34 123.89 126.70 124.81 127.11 C 128.69 128.79 130.52 133.88 126.79 136.80 C 119.42 142.90 120.64 130.67 122.00 126.03 Z" />
</g>
<g id="#4b8280f7">
<path fill="#4b8280" opacity="0.97" d=" M 505.02 131.22 C 507.57 130.65 510.03 129.76 512.42 128.72 C 513.44 130.02 514.34 131.41 515.22 132.81 C 520.68 141.63 526.36 150.66 527.96 161.11 C 532.63 182.76 523.53 203.27 513.64 221.64 C 507.09 227.17 517.86 224.45 521.34 225.34 C 517.41 227.04 513.35 228.39 509.40 230.03 C 503.86 229.95 498.34 229.86 492.82 229.87 C 495.00 224.09 515.62 216.99 507.19 211.72 C 511.72 206.28 514.40 199.55 517.64 193.29 C 529.33 191.20 520.07 175.10 522.96 167.96 C 525.21 152.30 510.18 143.93 505.02 131.22 Z" />
</g>
<g id="#d1c98efa">
<path fill="#d1c98e" opacity="0.98" d=" M 360.21 131.98 C 363.12 134.29 364.27 138.00 365.80 141.26 C 370.71 148.34 358.88 153.91 365.13 161.89 C 368.37 171.54 379.83 188.01 368.29 195.20 C 365.41 188.96 362.79 182.61 360.00 176.34 C 362.71 164.81 357.36 152.61 350.79 143.29 C 353.20 138.00 362.91 140.00 360.21 131.98 Z" />
</g>
<g id="#55645af6">
<path fill="#55645a" opacity="0.96" d=" M 515.22 132.81 C 517.39 133.34 519.59 133.78 521.80 134.16 C 523.20 136.51 524.59 138.87 526.05 141.19 C 527.64 143.87 529.20 146.57 530.75 149.29 C 535.54 157.10 540.14 165.12 543.26 173.77 C 543.30 181.98 542.77 190.17 541.26 198.25 C 539.59 195.11 543.98 185.00 539.17 185.11 C 536.84 192.05 535.48 199.31 532.72 206.11 C 527.72 201.69 534.42 194.76 535.88 189.97 C 540.71 182.99 534.52 175.34 533.99 168.00 C 533.95 165.41 531.29 155.03 527.96 161.11 C 526.36 150.66 520.68 141.63 515.22 132.81 Z" />
</g>
<g id="#b3bcbbf6">
<path fill="#b3bcbb" opacity="0.96" d=" M 82.92 179.54 C 75.16 165.72 74.98 147.64 82.02 133.59 C 85.39 143.47 83.06 154.09 84.81 164.23 C 84.96 165.39 85.14 166.56 85.32 167.73 C 85.46 171.80 85.55 176.18 82.92 179.54 Z" />
</g>
<g id="#060907fd">
<path fill="#060907" opacity="1.00" d=" M 451.83 138.76 C 485.24 122.62 527.08 157.51 517.64 193.29 C 514.40 199.55 511.72 206.28 507.19 211.72 C 488.59 230.43 453.77 230.02 438.09 207.96 C 421.01 187.05 425.32 149.77 451.83 138.76 M 443.35 156.30 C 432.33 158.29 432.04 173.20 436.56 181.39 C 444.25 185.08 456.57 178.12 460.92 170.33 C 451.75 170.14 452.43 155.47 443.35 156.30 Z" />
</g>
<g id="#dfdea2fd">
<path fill="#dfdea2" opacity="1.00" d=" M 314.67 143.76 C 316.12 138.81 323.26 133.32 327.23 139.03 C 318.08 149.13 317.61 163.26 318.98 176.84 C 322.74 174.26 327.31 171.93 326.42 179.86 C 331.25 177.50 341.77 167.39 343.75 177.35 C 346.12 187.26 326.58 181.05 330.61 191.68 C 321.50 192.52 328.30 193.33 332.13 193.51 C 329.34 199.00 323.93 216.01 334.39 208.36 C 340.67 211.86 338.24 223.43 329.86 223.93 C 324.35 225.56 328.20 214.16 322.33 216.22 C 316.71 219.98 312.82 227.04 311.92 233.71 C 317.98 232.06 322.75 234.25 324.22 240.61 C 329.26 235.93 332.28 240.12 327.78 244.77 C 317.56 249.01 324.11 262.30 317.92 269.95 C 315.33 280.51 299.86 266.59 297.00 277.00 C 286.60 274.28 296.17 290.35 299.79 294.12 C 296.40 305.00 283.20 297.35 275.94 295.10 C 272.74 302.19 277.07 315.59 267.12 318.17 C 267.06 314.81 271.74 305.68 266.30 306.30 C 255.75 309.81 264.36 322.43 258.70 329.18 C 258.13 327.69 257.52 326.21 256.96 324.71 C 257.38 316.50 255.58 308.47 255.43 300.30 C 257.54 294.93 268.54 290.47 263.11 283.90 C 258.54 276.44 267.93 274.92 272.34 272.16 C 262.19 268.25 254.96 249.60 266.70 243.81 C 275.31 244.15 273.22 228.66 282.07 232.84 C 288.11 240.05 302.59 238.83 304.59 228.69 C 302.41 223.02 308.87 220.26 308.86 215.03 C 307.30 207.89 305.44 200.81 304.37 193.59 C 299.05 191.44 288.84 200.67 287.00 193.10 C 289.39 186.10 298.49 185.23 303.22 180.21 C 305.22 174.96 303.46 165.69 310.98 164.92 C 315.90 164.26 310.00 162.03 308.37 160.58 C 307.00 156.62 303.96 153.29 303.70 148.96 C 306.28 145.48 311.67 146.55 314.67 143.76 Z" />
</g>
<g id="#b29a62f8">
<path fill="#b29a62" opacity="0.97" d=" M 327.23 139.03 C 331.64 148.07 341.82 152.08 348.12 159.57 C 343.29 159.08 345.64 163.93 346.21 166.71 C 348.64 175.31 348.16 184.43 350.90 192.96 C 344.63 192.93 338.36 192.84 332.13 193.51 C 328.30 193.33 321.50 192.52 330.61 191.68 C 326.58 181.05 346.12 187.26 343.75 177.35 C 341.77 167.39 331.25 177.50 326.42 179.86 C 327.31 171.93 322.74 174.26 318.98 176.84 C 317.61 163.26 318.08 149.13 327.23 139.03 Z" />
</g>
<g id="#b3b29df1">
<path fill="#b3b29d" opacity="0.95" d=" M 384.20 155.14 C 388.58 151.56 390.98 145.01 397.02 143.90 C 398.88 149.15 395.12 152.14 391.48 154.52 C 380.51 164.78 388.52 181.18 391.92 193.17 C 379.50 180.50 381.99 161.08 378.93 144.96 C 381.46 147.92 382.70 151.62 384.20 155.14 Z" />
</g>
<g id="#dbdbc7fe">
<path fill="#dbdbc7" opacity="1.00" d=" M 530.75 149.29 C 538.50 139.77 545.58 158.79 550.75 163.14 C 550.88 159.45 549.89 154.38 554.98 156.03 C 552.18 171.00 551.01 188.39 557.17 200.93 C 562.08 199.44 567.27 198.52 572.36 199.91 C 569.60 203.02 567.22 206.54 563.81 208.98 C 558.63 212.01 553.87 215.69 548.91 219.05 C 540.89 221.17 537.89 227.92 534.06 234.10 C 528.59 239.36 527.76 227.18 524.15 232.11 C 519.31 231.39 513.29 233.92 509.40 230.03 C 513.35 228.39 517.41 227.04 521.34 225.34 C 526.78 223.28 531.90 220.32 536.05 216.19 C 547.23 205.31 548.09 187.84 543.26 173.77 C 540.14 165.12 535.54 157.10 530.75 149.29 Z" />
</g>
<g id="#988b59f5">
<path fill="#988b59" opacity="0.96" d=" M 287.77 163.72 C 293.62 159.42 299.36 154.87 303.70 148.96 C 303.96 153.29 307.00 156.62 308.37 160.58 C 302.35 165.84 295.57 170.17 288.19 173.23 C 284.14 170.82 285.23 166.82 287.77 163.72 Z" />
</g>
<g id="#5a5a4cf9">
<path fill="#5a5a4c" opacity="0.98" d=" M 443.35 156.30 C 452.43 155.47 451.75 170.14 460.92 170.33 C 456.57 178.12 444.25 185.08 436.56 181.39 C 432.04 173.20 432.33 158.29 443.35 156.30 M 442.32 162.14 C 438.34 164.65 438.38 173.82 443.92 174.02 C 449.40 171.94 451.85 159.36 442.32 162.14 Z" />
</g>
<g id="#688c89ec">
<path fill="#688c89" opacity="0.93" d=" M 402.42 183.45 C 404.64 174.95 404.13 165.46 408.80 157.74 C 412.52 171.59 400.21 184.96 405.34 198.64 C 413.22 208.39 429.10 209.43 434.09 221.98 C 420.61 216.35 406.18 209.51 397.67 197.13 C 398.28 186.02 398.61 174.88 399.73 163.81 C 400.49 170.37 401.28 176.94 402.42 183.45 Z" />
</g>
<g id="#1d3430f6">
<path fill="#1d3430" opacity="0.96" d=" M 527.96 161.11 C 531.29 155.03 533.95 165.41 533.99 168.00 C 534.52 175.34 540.71 182.99 535.88 189.97 C 534.42 194.76 527.72 201.69 532.72 206.11 C 535.48 199.31 536.84 192.05 539.17 185.11 C 543.98 185.00 539.59 195.11 541.26 198.25 C 539.91 204.33 536.76 209.94 536.05 216.19 C 531.90 220.32 526.78 223.28 521.34 225.34 C 517.86 224.45 507.09 227.17 513.64 221.64 C 523.53 203.27 532.63 182.76 527.96 161.11 Z" />
</g>
<g id="#8b6233fc">
<path fill="#8b6233" opacity="1.00" d=" M 346.21 166.71 C 345.64 163.93 343.29 159.08 348.12 159.57 C 352.62 164.75 355.43 171.20 360.00 176.34 C 362.79 182.61 365.41 188.96 368.29 195.20 C 383.48 229.47 398.92 264.86 406.36 302.15 C 409.21 297.89 409.78 292.65 410.43 287.71 C 416.48 297.54 412.86 314.53 423.91 319.96 C 435.80 316.20 424.49 305.99 421.82 299.25 C 425.13 298.46 430.78 300.55 432.25 296.09 C 467.58 301.84 503.36 305.91 538.42 300.45 C 541.72 299.84 543.73 296.89 545.11 294.08 C 533.28 295.25 521.56 297.67 509.66 297.99 C 510.88 295.55 512.75 293.53 515.01 292.02 C 525.55 290.15 535.54 286.15 546.01 284.00 C 544.81 286.83 539.21 294.31 547.64 290.55 C 556.31 288.80 569.92 279.56 577.12 288.89 C 567.89 296.83 549.07 295.44 545.18 308.47 C 551.81 308.45 556.84 320.21 549.58 322.63 C 543.24 326.68 531.85 325.94 528.76 333.98 C 544.34 335.38 561.17 325.15 575.88 333.26 C 573.24 338.71 575.58 347.56 569.23 350.41 C 565.67 354.81 565.74 363.66 558.24 363.27 C 567.26 372.57 550.19 370.37 544.86 373.03 C 546.39 375.97 551.08 384.05 545.05 383.85 C 538.31 380.80 534.32 384.85 532.96 390.98 C 517.61 392.41 506.29 410.74 488.10 407.27 C 495.09 402.72 500.77 394.61 491.87 388.27 C 500.41 390.14 511.78 385.85 501.16 378.07 C 508.74 378.30 517.27 375.43 523.79 379.86 C 529.03 370.02 537.36 360.99 542.94 351.00 C 544.56 348.44 544.91 340.88 548.19 346.20 C 549.49 333.69 554.24 348.24 558.03 351.46 C 562.03 347.31 558.93 339.19 553.84 337.54 C 540.74 338.99 527.50 336.65 514.49 337.74 C 503.59 335.78 494.18 328.05 482.73 329.05 C 475.45 330.56 469.45 326.22 463.73 322.57 C 467.52 319.13 475.02 320.63 477.83 317.95 C 469.26 303.62 448.77 307.91 434.85 302.95 C 438.03 308.43 444.51 312.37 444.99 319.13 C 441.02 314.26 431.25 314.23 435.56 323.43 C 450.11 330.86 446.39 349.34 456.75 360.09 C 455.58 365.00 449.69 368.93 450.93 374.08 C 453.52 372.72 456.70 366.40 458.79 371.33 C 458.87 376.91 453.19 383.30 457.51 388.47 C 467.43 395.04 474.74 408.73 488.10 407.27 C 469.33 413.43 450.16 405.75 431.69 402.31 C 425.69 401.04 427.94 391.91 424.31 390.03 C 426.88 397.96 417.69 400.16 413.66 395.27 C 410.29 386.19 419.14 374.83 412.27 366.66 C 400.36 362.29 406.08 383.54 408.70 390.31 C 420.86 405.24 387.96 406.88 388.91 421.08 C 410.34 413.96 437.22 402.94 457.49 418.57 C 463.30 414.88 482.25 406.14 482.87 419.83 C 479.35 425.05 481.45 429.79 483.09 435.13 C 479.22 432.51 476.33 429.98 473.01 435.14 C 467.85 424.82 464.10 445.38 465.44 449.96 C 460.33 449.14 452.28 446.84 451.11 454.08 C 452.60 456.86 465.16 450.14 463.70 457.63 C 462.07 461.45 459.23 464.57 456.90 467.97 C 453.24 466.66 447.63 466.30 449.32 471.85 C 443.69 468.42 438.44 479.24 445.94 477.49 C 443.77 484.50 442.58 491.74 441.11 498.90 C 437.30 499.21 433.37 500.62 432.63 504.86 C 430.22 511.24 428.60 517.90 426.10 524.26 C 430.27 522.99 433.84 518.35 438.38 519.71 C 436.60 528.21 431.76 536.23 423.21 539.31 L 422.33 539.23 C 425.20 527.05 402.23 535.08 405.91 521.98 C 406.89 515.18 419.09 519.94 420.99 512.91 C 420.23 502.37 403.25 499.96 404.42 489.43 C 413.95 474.37 387.28 469.66 380.23 467.31 C 384.10 460.87 391.80 462.11 398.04 462.97 C 398.17 457.73 395.45 452.92 393.63 448.17 C 385.00 445.53 379.57 455.26 371.45 454.69 C 366.43 451.72 362.00 446.15 361.95 440.15 C 371.30 443.88 378.57 436.83 377.09 427.05 C 365.08 430.83 351.58 427.76 340.85 434.91 C 336.39 435.97 332.86 430.37 334.52 426.55 C 345.88 428.12 354.63 420.49 364.96 417.75 C 371.48 410.97 348.22 396.74 364.93 397.97 C 369.29 397.24 365.27 405.88 370.08 405.97 C 381.94 402.98 390.32 394.38 390.14 382.71 C 383.16 376.58 368.26 384.20 365.85 374.02 C 361.57 365.27 349.63 367.67 342.72 371.71 C 335.02 364.39 325.55 369.19 316.76 370.36 C 315.36 370.04 314.01 369.58 312.66 369.14 C 319.25 365.96 330.98 366.71 328.22 355.91 C 336.34 370.46 354.86 365.96 368.52 364.55 C 375.13 361.57 380.03 372.94 386.07 367.05 C 389.06 363.50 392.82 366.48 396.05 367.95 C 394.12 358.09 402.83 355.89 409.75 360.50 C 408.38 355.91 411.15 353.98 414.77 353.56 C 408.51 329.10 405.56 303.64 397.17 279.80 C 393.65 295.00 400.02 310.47 400.32 325.34 C 395.46 322.31 389.55 323.58 384.13 322.83 C 380.77 322.74 378.40 315.32 385.92 318.45 C 387.07 315.41 380.93 305.05 379.08 312.07 C 372.89 317.01 378.71 327.24 373.03 330.85 C 370.14 333.81 370.57 338.85 367.69 341.98 C 361.40 343.14 355.51 337.60 349.38 340.37 C 335.91 347.44 318.95 349.31 304.61 346.18 C 313.29 340.76 326.29 349.54 330.79 337.79 C 337.37 327.97 349.68 328.45 359.72 330.83 C 364.23 322.21 351.13 315.43 352.00 306.31 C 358.73 304.51 359.81 296.61 363.70 291.69 C 368.67 286.34 354.20 284.70 358.92 278.97 C 364.37 275.32 375.93 271.36 377.49 280.58 C 385.44 284.38 384.27 268.02 387.34 263.36 C 392.12 255.88 374.30 264.76 380.84 258.80 C 391.68 251.14 374.50 244.75 374.29 236.12 C 376.22 225.18 366.76 216.68 366.99 205.90 C 366.26 199.91 359.57 197.84 355.04 195.06 C 353.67 194.33 352.28 193.65 350.90 192.96 C 348.16 184.43 348.64 175.31 346.21 166.71 M 429.28 323.05 C 429.63 327.94 426.47 334.01 420.51 332.42 C 418.96 337.53 408.95 349.36 420.95 347.17 C 422.44 356.14 417.41 365.12 420.03 373.94 C 421.26 378.39 425.52 376.97 425.91 372.91 C 431.78 361.04 422.86 346.75 429.26 335.12 C 440.67 338.97 429.69 358.30 440.63 363.42 C 446.71 366.55 450.29 354.62 444.65 352.44 C 434.71 351.76 441.83 338.85 437.21 333.81 C 431.80 331.76 437.71 321.24 429.28 323.05 M 441.28 374.13 C 433.88 379.06 440.57 395.59 448.71 386.92 C 444.64 383.11 449.32 371.51 441.28 374.13 Z" />
</g>
<g id="#eaeac4fe">
<path fill="#eaeac4" opacity="1.00" d=" M 288.19 173.23 C 295.57 170.17 302.35 165.84 308.37 160.58 C 310.00 162.03 315.90 164.26 310.98 164.92 C 303.46 165.69 305.22 174.96 303.22 180.21 C 298.49 185.23 289.39 186.10 287.00 193.10 C 288.84 200.67 299.05 191.44 304.37 193.59 C 305.44 200.81 307.30 207.89 308.86 215.03 C 308.87 220.26 302.41 223.02 304.59 228.69 C 302.59 238.83 288.11 240.05 282.07 232.84 C 273.22 228.66 275.31 244.15 266.70 243.81 C 254.96 249.60 262.19 268.25 272.34 272.16 C 267.93 274.92 258.54 276.44 263.11 283.90 C 268.54 290.47 257.54 294.93 255.43 300.30 C 253.31 295.53 253.34 290.06 252.58 284.95 C 251.95 279.37 256.83 263.29 247.35 269.33 C 239.06 275.83 245.38 293.44 233.12 295.28 C 236.98 286.31 240.43 276.88 238.99 266.88 C 231.68 267.88 231.39 276.76 228.46 282.09 C 225.12 269.62 223.06 289.52 222.00 294.03 C 222.25 301.81 201.29 318.16 201.63 303.98 C 187.59 314.42 167.69 313.62 155.77 327.36 C 148.92 320.52 143.39 312.45 136.43 305.79 C 134.29 296.14 124.34 309.44 129.87 314.11 C 134.93 316.95 128.31 323.63 135.72 321.48 C 142.01 339.23 162.46 342.37 177.17 351.26 C 174.49 358.83 160.02 371.02 173.04 376.08 C 182.98 368.50 191.40 357.61 204.33 354.98 C 218.73 354.57 233.47 356.92 247.48 357.08 L 248.05 357.32 C 253.61 362.28 261.90 358.49 267.44 361.59 C 261.85 368.64 249.41 367.34 247.90 377.81 C 250.18 379.44 259.00 380.28 254.68 383.75 C 248.25 387.27 243.65 391.98 244.67 399.67 C 241.56 404.35 234.59 402.99 229.75 404.82 C 224.63 409.00 232.38 422.54 223.07 425.24 C 217.79 424.44 211.22 426.09 207.03 421.89 C 210.97 418.14 220.51 407.14 211.40 404.47 C 203.13 402.03 202.81 414.53 196.04 416.00 C 187.02 420.81 177.21 414.43 168.00 414.04 C 172.86 426.39 193.13 422.00 198.80 433.74 C 190.60 437.55 182.71 448.22 172.80 446.19 C 166.14 442.46 168.26 453.62 169.21 456.92 C 173.62 457.07 178.02 456.65 182.41 456.29 C 172.85 464.35 159.13 465.24 150.09 474.12 C 145.60 475.70 136.02 470.86 135.78 478.81 C 134.17 482.69 137.06 493.70 130.38 492.74 C 126.44 484.84 122.35 475.20 112.86 472.99 C 97.76 445.23 81.95 416.22 74.98 385.05 C 75.70 379.36 76.85 373.50 74.04 368.18 C 93.29 372.30 80.88 357.29 73.70 352.24 C 67.32 342.67 53.94 345.60 47.88 336.15 C 46.09 333.34 42.96 332.57 39.69 333.62 C 31.52 326.96 19.95 312.58 20.93 303.11 C 25.26 313.10 36.42 315.45 43.85 322.23 C 56.02 334.01 73.90 332.41 89.03 337.10 C 89.75 343.91 83.39 353.48 89.28 358.77 C 96.60 357.95 104.31 356.89 110.65 361.52 C 114.06 356.41 120.44 351.64 117.32 344.69 C 113.41 328.01 122.47 312.89 127.44 297.71 C 128.18 296.49 128.90 295.27 129.69 294.09 C 138.74 295.32 147.09 302.98 154.14 309.71 C 162.39 309.64 159.14 299.74 161.96 294.96 C 166.76 285.83 177.14 286.33 185.53 288.81 C 187.66 281.87 191.83 275.83 196.18 270.11 C 202.06 271.04 199.64 276.91 197.14 280.08 C 203.96 283.57 205.46 268.88 212.15 271.78 C 223.57 275.76 237.03 264.40 232.06 252.40 C 244.20 256.11 239.10 239.82 239.56 233.57 C 236.12 222.87 251.60 221.76 253.95 214.28 C 251.52 212.18 247.33 211.05 247.10 206.90 C 247.50 197.79 259.82 197.59 262.95 189.79 C 263.35 192.25 263.36 196.64 266.38 194.38 C 274.77 188.57 279.52 178.75 288.19 173.23 Z" />
</g>
<g id="#d4d5d4fa">
<path fill="#d4d5d4" opacity="0.98" d=" M 442.32 162.14 C 451.85 159.36 449.40 171.94 443.92 174.02 C 438.38 173.82 438.34 164.65 442.32 162.14 Z" />
</g>
<g id="#bbbb92f3">
<path fill="#bbbb92" opacity="0.95" d=" M 262.95 189.79 C 270.03 180.19 277.56 170.24 287.77 163.72 C 285.23 166.82 284.14 170.82 288.19 173.23 C 279.52 178.75 274.77 188.57 266.38 194.38 C 263.36 196.64 263.35 192.25 262.95 189.79 Z" />
</g>
<g id="#3c1504fb">
<path fill="#3c1504" opacity="1.00" d=" M 586.12 166.05 C 601.55 184.08 601.22 209.13 611.14 229.87 C 612.33 246.76 616.87 263.53 614.74 280.69 C 611.29 312.53 596.58 342.56 575.18 366.20 C 566.09 379.23 547.90 381.99 541.11 397.07 C 527.92 420.19 526.19 448.29 509.86 469.93 C 480.54 518.66 448.70 571.91 393.88 594.89 C 381.67 601.49 365.50 599.56 355.61 610.59 C 352.45 614.04 349.93 608.25 348.60 605.82 C 350.07 604.59 351.55 603.39 353.08 602.24 C 359.94 601.12 362.95 593.75 368.65 590.68 C 382.29 593.24 389.27 576.49 402.50 575.63 C 410.38 577.64 411.57 571.23 414.13 565.94 C 410.09 566.01 406.43 567.67 402.67 568.86 C 403.12 562.50 416.43 563.04 412.57 556.46 C 405.61 548.95 416.85 549.34 423.01 549.97 C 417.26 547.52 417.13 541.45 423.21 539.31 C 431.76 536.23 436.60 528.21 438.38 519.71 C 442.37 513.95 450.94 528.91 449.32 517.12 C 454.49 505.55 439.70 505.74 432.63 504.86 C 433.37 500.62 437.30 499.21 441.11 498.90 C 448.12 495.37 450.66 502.02 452.49 507.45 C 449.79 488.80 461.65 513.69 464.22 504.12 C 456.12 504.62 458.82 500.49 460.90 495.85 C 460.02 486.58 450.96 477.28 456.90 467.97 C 459.23 464.57 462.07 461.45 463.70 457.63 C 465.16 450.14 452.60 456.86 451.11 454.08 C 452.28 446.84 460.33 449.14 465.44 449.96 C 464.10 445.38 467.85 424.82 473.01 435.14 C 476.33 429.98 479.22 432.51 483.09 435.13 C 481.45 429.79 479.35 425.05 482.87 419.83 C 482.25 406.14 463.30 414.88 457.49 418.57 C 437.22 402.94 410.34 413.96 388.91 421.08 C 387.96 406.88 420.86 405.24 408.70 390.31 C 406.08 383.54 400.36 362.29 412.27 366.66 C 419.14 374.83 410.29 386.19 413.66 395.27 C 417.69 400.16 426.88 397.96 424.31 390.03 C 427.94 391.91 425.69 401.04 431.69 402.31 C 450.16 405.75 469.33 413.43 488.10 407.27 C 506.29 410.74 517.61 392.41 532.96 390.98 C 534.32 384.85 538.31 380.80 545.05 383.85 C 551.08 384.05 546.39 375.97 544.86 373.03 C 550.19 370.37 567.26 372.57 558.24 363.27 C 565.74 363.66 565.67 354.81 569.23 350.41 C 575.58 347.56 573.24 338.71 575.88 333.26 C 561.17 325.15 544.34 335.38 528.76 333.98 C 531.85 325.94 543.24 326.68 549.58 322.63 C 556.84 320.21 551.81 308.45 545.18 308.47 C 549.07 295.44 567.89 296.83 577.12 288.89 C 569.92 279.56 556.31 288.80 547.64 290.55 C 539.21 294.31 544.81 286.83 546.01 284.00 C 546.29 283.73 546.86 283.19 547.15 282.92 C 567.34 278.68 584.83 261.28 588.04 240.79 C 580.06 247.06 577.54 262.86 564.95 261.02 C 566.28 255.33 568.96 249.80 568.01 243.78 C 562.03 245.74 557.84 251.00 551.94 253.12 C 552.31 247.09 559.21 229.36 559.39 245.28 C 564.80 237.57 566.57 220.73 579.99 225.80 C 586.88 219.18 588.31 206.46 588.02 197.04 C 588.24 188.96 581.28 173.24 572.96 183.10 C 568.98 169.97 585.57 176.26 586.12 166.05 Z" />
</g>
<g id="#81a4a1f1">
<path fill="#81a4a1" opacity="0.95" d=" M 85.32 167.73 C 85.96 172.65 85.53 178.40 92.91 177.02 C 88.65 182.63 101.73 191.83 108.62 192.49 C 132.87 201.50 162.44 201.09 183.26 184.20 C 179.37 192.47 171.14 196.75 163.93 201.63 C 165.39 202.02 166.85 202.39 168.32 202.74 C 144.56 208.78 120.09 202.72 97.60 194.49 C 91.21 192.91 88.03 186.58 84.11 181.84 C 83.70 181.08 83.31 180.31 82.92 179.54 C 85.55 176.18 85.46 171.80 85.32 167.73 Z" />
</g>
<g id="#4d7f7eeb">
<path fill="#4d7f7e" opacity="0.92" d=" M 108.97 172.80 C 113.52 173.98 116.61 177.78 118.30 182.01 C 113.26 182.04 108.77 177.96 108.97 172.80 Z" />
</g>
<g id="#999681ed">
<path fill="#999681" opacity="0.93" d=" M 543.26 173.77 C 548.09 187.84 547.23 205.31 536.05 216.19 C 536.76 209.94 539.91 204.33 541.26 198.25 C 542.77 190.17 543.30 181.98 543.26 173.77 Z" />
</g>
<g id="#7e7b64e1">
<path fill="#7e7b64" opacity="0.88" d=" M 20.31 194.32 C 20.75 190.89 17.94 185.19 22.46 183.56 C 23.27 187.33 22.74 191.27 20.31 194.32 Z" />
</g>
<g id="#49706bdf">
<path fill="#49706b" opacity="0.87" d=" M 137.76 189.28 C 144.26 189.01 150.77 189.08 157.28 189.25 C 151.16 192.28 144.12 190.40 137.76 189.28 Z" />
</g>
<g id="#d8cf88fc">
<path fill="#d8cf88" opacity="1.00" d=" M 332.13 193.51 C 338.36 192.84 344.63 192.93 350.90 192.96 C 352.28 193.65 353.67 194.33 355.04 195.06 C 354.92 196.69 354.78 198.32 354.68 199.95 C 349.07 193.57 341.04 204.34 346.21 209.79 C 353.93 217.19 332.84 236.81 350.10 233.11 C 343.98 240.25 335.57 246.05 332.04 255.08 C 330.17 259.13 331.01 265.37 336.24 266.00 C 333.43 269.57 329.19 272.37 327.89 276.93 C 331.05 276.89 334.14 276.43 337.30 276.26 C 329.30 291.97 305.88 298.70 305.90 318.82 C 302.33 316.26 298.26 314.51 294.07 313.26 C 291.22 318.36 290.04 324.95 284.44 327.90 C 278.57 332.66 274.65 343.50 265.56 342.33 C 261.36 339.74 256.60 334.54 258.70 329.18 C 264.36 322.43 255.75 309.81 266.30 306.30 C 271.74 305.68 267.06 314.81 267.12 318.17 C 277.07 315.59 272.74 302.19 275.94 295.10 C 283.20 297.35 296.40 305.00 299.79 294.12 C 296.17 290.35 286.60 274.28 297.00 277.00 C 299.86 266.59 315.33 280.51 317.92 269.95 C 324.11 262.30 317.56 249.01 327.78 244.77 C 332.28 240.12 329.26 235.93 324.22 240.61 C 322.75 234.25 317.98 232.06 311.92 233.71 C 312.82 227.04 316.71 219.98 322.33 216.22 C 328.20 214.16 324.35 225.56 329.86 223.93 C 338.24 223.43 340.67 211.86 334.39 208.36 C 323.93 216.01 329.34 199.00 332.13 193.51 Z" />
</g>
<g id="#9c7c43fa">
<path fill="#9c7c43" opacity="0.98" d=" M 355.04 195.06 C 359.57 197.84 366.26 199.91 366.99 205.90 C 366.76 216.68 376.22 225.18 374.29 236.12 C 374.50 244.75 391.68 251.14 380.84 258.80 C 374.30 264.76 392.12 255.88 387.34 263.36 C 384.27 268.02 385.44 284.38 377.49 280.58 C 375.93 271.36 364.37 275.32 358.92 278.97 C 354.20 284.70 368.67 286.34 363.70 291.69 C 359.81 296.61 358.73 304.51 352.00 306.31 C 351.13 315.43 364.23 322.21 359.72 330.83 C 349.68 328.45 337.37 327.97 330.79 337.79 C 326.29 349.54 313.29 340.76 304.61 346.18 C 287.25 344.74 268.34 348.06 252.01 339.94 C 235.39 337.60 218.21 338.97 201.46 336.54 C 196.62 334.31 192.86 337.98 189.04 340.15 C 184.98 340.14 181.17 338.68 177.49 337.14 C 180.54 334.61 183.67 332.17 186.81 329.75 C 200.48 335.45 215.14 323.88 227.44 332.51 C 237.50 328.19 253.80 339.33 256.96 324.71 C 257.52 326.21 258.13 327.69 258.70 329.18 C 256.60 334.54 261.36 339.74 265.56 342.33 C 274.65 343.50 278.57 332.66 284.44 327.90 C 288.71 332.20 286.86 344.73 295.23 341.30 C 299.67 340.06 305.06 338.05 303.26 332.01 C 307.18 333.31 311.76 336.56 315.77 333.73 C 320.42 328.00 319.46 320.11 321.88 313.54 C 324.65 315.93 328.19 326.06 332.77 321.84 C 333.93 317.62 337.67 315.34 341.08 313.07 C 334.73 310.36 338.93 303.26 337.10 298.70 C 332.94 302.49 329.02 307.67 322.88 307.97 C 326.42 301.93 335.95 287.06 343.98 294.91 C 347.79 281.19 361.16 270.17 358.05 255.03 C 347.39 238.60 358.77 218.11 354.68 199.95 C 354.78 198.32 354.92 196.69 355.04 195.06 Z" />
</g>
<g id="#452812f7">
<path fill="#452812" opacity="0.97" d=" M 380.08 194.77 C 386.64 195.91 390.76 201.64 396.05 205.14 C 398.84 213.20 403.38 220.46 407.38 227.95 C 407.03 235.12 400.96 231.83 396.96 229.84 C 395.42 241.02 404.62 249.28 412.90 255.14 C 413.64 256.29 414.40 257.44 415.15 258.60 C 407.53 262.70 411.01 272.61 419.05 273.06 C 420.63 273.75 422.22 274.41 423.84 275.02 C 424.20 275.28 424.92 275.82 425.28 276.09 C 425.18 282.03 418.35 281.30 414.63 283.05 C 417.56 286.76 421.77 288.97 425.89 291.09 C 428.00 292.76 430.07 294.49 432.25 296.09 C 430.78 300.55 425.13 298.46 421.82 299.25 C 424.49 305.99 435.80 316.20 423.91 319.96 C 412.86 314.53 416.48 297.54 410.43 287.71 C 400.75 256.62 385.75 226.77 380.08 194.77 Z" />
</g>
<g id="#f1f2e3ff">
<path fill="#f1f2e3" opacity="1.00" d=" M 23.05 201.01 C 26.93 191.80 36.89 196.79 34.97 206.12 C 39.65 222.68 47.58 242.02 65.70 247.38 C 72.03 250.93 77.57 256.18 84.62 258.32 C 89.65 259.09 95.72 262.41 91.80 268.20 C 91.37 268.39 90.52 268.78 90.09 268.97 C 80.80 270.74 68.52 275.20 68.36 286.40 C 65.33 295.81 78.20 291.78 83.28 290.22 C 94.32 287.44 104.35 281.61 115.40 283.50 C 125.42 281.73 131.17 272.98 137.35 265.82 C 140.96 261.59 143.39 256.21 148.16 253.09 C 162.89 250.05 172.63 235.37 177.17 221.96 C 178.08 220.77 178.99 219.57 179.90 218.37 C 182.48 215.86 185.16 212.27 189.48 214.50 C 205.31 216.73 221.30 215.71 237.22 216.12 C 233.96 224.14 229.43 231.72 227.27 240.23 C 216.59 248.93 199.39 249.05 192.43 262.52 C 182.12 264.62 171.36 261.62 160.97 261.10 C 159.48 266.11 165.25 267.12 169.07 266.32 C 167.95 270.90 166.80 275.57 164.81 279.85 C 161.42 279.42 159.05 275.03 155.24 275.11 C 150.87 278.55 152.94 285.95 147.65 288.68 C 141.81 289.94 133.16 287.57 129.69 294.09 C 128.90 295.27 128.18 296.49 127.44 297.71 C 113.31 304.41 118.91 325.34 107.02 334.21 C 104.16 327.93 107.73 319.93 103.71 314.20 C 98.31 311.36 94.42 319.34 89.10 320.13 C 87.24 315.84 88.12 308.94 82.31 307.59 C 69.36 302.67 62.31 320.33 49.64 315.42 C 37.21 312.28 25.70 303.58 22.11 290.89 C 12.13 261.99 14.43 229.89 23.05 201.01 Z" />
</g>
<g id="#e1e1b5fe">
<path fill="#e1e1b5" opacity="1.00" d=" M 394.97 197.18 C 395.64 197.17 397.00 197.14 397.67 197.13 C 406.18 209.51 420.61 216.35 434.09 221.98 C 440.10 224.01 445.00 228.23 450.82 230.65 C 455.42 236.44 444.00 239.78 442.28 233.69 C 438.77 228.08 435.45 238.29 441.00 238.99 C 449.66 240.53 456.28 248.04 456.91 256.75 C 452.29 261.33 440.08 258.05 442.16 267.57 C 453.85 271.21 465.52 275.26 477.66 277.16 C 479.68 278.34 486.92 277.75 484.87 280.54 C 478.80 280.64 472.31 278.72 466.47 280.99 C 457.75 284.69 447.64 283.19 440.02 277.70 C 435.34 274.33 429.36 273.95 423.84 275.02 C 422.22 274.41 420.63 273.75 419.05 273.06 C 419.98 267.77 418.55 262.66 415.15 258.60 C 414.40 257.44 413.64 256.29 412.90 255.14 C 414.40 245.59 412.46 236.10 407.38 227.95 C 403.38 220.46 398.84 213.20 396.05 205.14 C 395.83 202.46 395.50 199.80 394.97 197.18 Z" />
</g>
<g id="#bea25ffc">
<path fill="#bea25f" opacity="1.00" d=" M 346.21 209.79 C 341.04 204.34 349.07 193.57 354.68 199.95 C 358.77 218.11 347.39 238.60 358.05 255.03 C 361.16 270.17 347.79 281.19 343.98 294.91 C 335.95 287.06 326.42 301.93 322.88 307.97 C 329.02 307.67 332.94 302.49 337.10 298.70 C 338.93 303.26 334.73 310.36 341.08 313.07 C 337.67 315.34 333.93 317.62 332.77 321.84 C 328.19 326.06 324.65 315.93 321.88 313.54 C 319.46 320.11 320.42 328.00 315.77 333.73 C 311.76 336.56 307.18 333.31 303.26 332.01 C 305.06 338.05 299.67 340.06 295.23 341.30 C 286.86 344.73 288.71 332.20 284.44 327.90 C 290.04 324.95 291.22 318.36 294.07 313.26 C 298.26 314.51 302.33 316.26 305.90 318.82 C 305.88 298.70 329.30 291.97 337.30 276.26 C 334.14 276.43 331.05 276.89 327.89 276.93 C 329.19 272.37 333.43 269.57 336.24 266.00 C 331.01 265.37 330.17 259.13 332.04 255.08 C 335.57 246.05 343.98 240.25 350.10 233.11 C 332.84 236.81 353.93 217.19 346.21 209.79 Z" />
</g>
<g id="#593e21f5">
<path fill="#593e21" opacity="0.96" d=" M 572.36 199.91 C 572.86 199.55 573.85 198.84 574.34 198.48 C 580.55 203.46 576.50 212.06 577.73 218.79 C 571.36 222.24 566.64 213.53 563.81 208.98 C 567.22 206.54 569.60 203.02 572.36 199.91 Z" />
</g>
<g id="#64614ccd">
<path fill="#64614c" opacity="0.80" d=" M 14.38 219.29 C 11.76 212.97 13.45 205.78 18.09 200.88 C 17.67 207.16 16.14 213.27 14.38 219.29 Z" />
</g>
<g id="#dcdd9afa">
<path fill="#dcdd9a" opacity="0.98" d=" M 162.34 210.17 C 169.40 206.53 182.27 208.19 179.90 218.37 C 178.99 219.57 178.08 220.77 177.17 221.96 C 173.29 223.47 170.33 226.49 167.08 228.98 C 162.38 230.12 154.28 237.46 150.92 230.89 C 148.82 232.47 147.05 235.51 144.03 234.06 C 134.16 230.78 125.09 236.76 116.01 239.61 C 106.81 236.97 95.35 236.73 88.51 229.17 C 97.80 217.77 114.61 230.06 125.56 221.71 C 125.24 218.69 124.28 213.98 128.58 213.52 C 139.84 213.91 151.55 214.19 162.34 210.17 Z" />
</g>
<g id="#b09357fa">
<path fill="#b09357" opacity="0.98" d=" M 534.06 234.10 C 537.89 227.92 540.89 221.17 548.91 219.05 C 560.62 231.26 542.78 243.26 538.74 254.39 C 532.95 249.91 526.06 266.00 526.67 255.73 C 526.27 251.53 536.73 245.78 527.52 246.49 C 522.85 247.17 521.58 242.93 522.47 239.17 C 523.17 236.85 523.74 234.50 524.15 232.11 C 527.76 227.18 528.59 239.36 534.06 234.10 Z" />
</g>
<g id="#8c6c3afa">
<path fill="#8c6c3a" opacity="0.98" d=" M 407.38 227.95 C 412.46 236.10 414.40 245.59 412.90 255.14 C 404.62 249.28 395.42 241.02 396.96 229.84 C 400.96 231.83 407.03 235.12 407.38 227.95 Z" />
</g>
<g id="#bbb47bf2">
<path fill="#bbb47b" opacity="0.95" d=" M 81.95 231.54 C 84.18 230.86 86.42 230.20 88.51 229.17 C 95.35 236.73 106.81 236.97 116.01 239.61 C 125.09 236.76 134.16 230.78 144.03 234.06 C 147.05 235.51 148.82 232.47 150.92 230.89 C 154.28 237.46 162.38 230.12 167.08 228.98 C 162.29 236.44 157.40 246.17 146.93 245.87 C 124.74 249.44 99.81 246.14 81.95 231.54 Z" />
</g>
<g id="#d8d397fb">
<path fill="#d8d397" opacity="1.00" d=" M 450.82 230.65 C 464.79 230.63 478.88 231.91 492.82 229.87 C 498.34 229.86 503.86 229.95 509.40 230.03 C 513.29 233.92 519.31 231.39 524.15 232.11 C 523.74 234.50 523.17 236.85 522.47 239.17 C 518.92 232.79 510.82 238.53 505.54 236.38 C 501.00 232.95 498.21 241.85 492.99 238.92 C 484.28 236.85 474.71 240.99 467.24 237.34 C 462.18 240.77 467.24 254.97 472.92 248.91 C 479.00 244.64 487.08 243.06 488.19 251.85 C 487.58 257.37 489.41 263.57 486.77 268.73 C 483.07 270.98 476.88 271.22 477.66 277.16 C 465.52 275.26 453.85 271.21 442.16 267.57 C 440.08 258.05 452.29 261.33 456.91 256.75 C 456.28 248.04 449.66 240.53 441.00 238.99 C 435.45 238.29 438.77 228.08 442.28 233.69 C 444.00 239.78 455.42 236.44 450.82 230.65 Z" />
</g>
<g id="#c9af69fc">
<path fill="#c9af69" opacity="1.00" d=" M 492.99 238.92 C 498.21 241.85 501.00 232.95 505.54 236.38 C 510.82 238.53 518.92 232.79 522.47 239.17 C 521.58 242.93 522.85 247.17 527.52 246.49 C 536.73 245.78 526.27 251.53 526.67 255.73 C 527.91 267.09 513.75 263.79 506.89 266.30 C 501.13 268.16 497.11 273.51 491.11 274.95 C 490.80 267.20 489.44 259.48 488.19 251.85 C 487.08 243.06 479.00 244.64 472.92 248.91 C 467.24 254.97 462.18 240.77 467.24 237.34 C 474.71 240.99 484.28 236.85 492.99 238.92 Z" />
</g>
<g id="#7575697e">
<path fill="#757569" opacity="0.49" d=" M 10.24 267.26 C 10.90 258.81 8.12 246.80 11.01 239.98 C 11.03 249.08 11.36 258.21 10.24 267.26 Z" />
</g>
<g id="#d2d3acf5">
<path fill="#d2d3ac" opacity="0.96" d=" M 65.70 247.38 C 71.41 232.97 98.91 247.31 84.62 258.32 C 77.57 256.18 72.03 250.93 65.70 247.38 Z" />
</g>
<g id="#a99151f3">
<path fill="#a99151" opacity="0.95" d=" M 488.19 251.85 C 489.44 259.48 490.80 267.20 491.11 274.95 C 497.11 273.51 501.13 268.16 506.89 266.30 C 513.54 265.60 508.79 274.54 514.17 275.49 C 504.79 278.80 494.79 280.20 484.87 280.54 C 486.92 277.75 479.68 278.34 477.66 277.16 C 476.88 271.22 483.07 270.98 486.77 268.73 C 489.41 263.57 487.58 257.37 488.19 251.85 Z" />
</g>
<g id="#c6c494f7">
<path fill="#c6c494" opacity="0.97" d=" M 107.06 255.33 C 120.70 261.75 134.12 250.69 148.16 253.09 C 143.39 256.21 140.96 261.59 137.35 265.82 C 123.91 255.78 110.47 274.38 96.73 269.48 C 103.11 267.36 103.88 259.48 107.06 255.33 Z" />
</g>
<g id="#7e6438fa">
<path fill="#7e6438" opacity="0.98" d=" M 419.05 273.06 C 411.01 272.61 407.53 262.70 415.15 258.60 C 418.55 262.66 419.98 267.77 419.05 273.06 Z" />
</g>
<g id="#a68549fc">
<path fill="#a68549" opacity="1.00" d=" M 516.90 274.58 C 529.21 270.05 540.55 261.76 554.17 261.88 C 553.16 268.70 535.40 273.88 544.14 278.28 C 538.51 280.39 533.00 282.93 527.04 283.99 C 523.01 281.58 521.41 276.39 516.90 274.58 Z" />
</g>
<g id="#8f7a4df6">
<path fill="#8f7a4d" opacity="0.96" d=" M 96.73 269.48 C 110.47 274.38 123.91 255.78 137.35 265.82 C 131.17 272.98 125.42 281.73 115.40 283.50 C 104.35 281.61 94.32 287.44 83.28 290.22 C 67.27 287.21 85.05 275.30 90.09 268.97 C 90.52 268.78 91.37 268.39 91.80 268.20 C 93.43 268.66 95.07 269.11 96.73 269.48 Z" />
</g>
<g id="#e0e0a0fc">
<path fill="#e0e0a0" opacity="1.00" d=" M 228.46 282.09 C 231.39 276.76 231.68 267.88 238.99 266.88 C 240.43 276.88 236.98 286.31 233.12 295.28 C 245.38 293.44 239.06 275.83 247.35 269.33 C 256.83 263.29 251.95 279.37 252.58 284.95 C 252.04 299.66 252.68 317.65 240.22 328.17 C 238.88 326.00 237.94 312.60 234.04 319.08 C 228.85 325.01 232.98 306.57 225.15 308.94 C 225.58 314.96 226.20 321.02 224.79 326.99 C 219.25 327.80 220.02 321.40 220.49 317.65 C 216.61 322.81 205.29 333.96 201.73 323.12 C 196.61 324.89 191.03 326.16 186.81 329.75 C 183.67 332.17 180.54 334.61 177.49 337.14 C 169.74 335.55 161.11 333.75 155.77 327.36 C 167.69 313.62 187.59 314.42 201.63 303.98 C 201.29 318.16 222.25 301.81 222.00 294.03 C 223.06 289.52 225.12 269.62 228.46 282.09 Z" />
</g>
<g id="#cccca0f5">
<path fill="#cccca0" opacity="0.96" d=" M 68.36 286.40 C 68.52 275.20 80.80 270.74 90.09 268.97 C 85.05 275.30 67.27 287.21 83.28 290.22 C 78.20 291.78 65.33 295.81 68.36 286.40 Z" />
</g>
<g id="#cfc98dfd">
<path fill="#cfc98d" opacity="1.00" d=" M 423.84 275.02 C 429.36 273.95 435.34 274.33 440.02 277.70 C 436.03 278.43 432.70 280.98 429.85 283.74 C 456.21 289.61 482.63 296.20 509.66 297.99 C 521.56 297.67 533.28 295.25 545.11 294.08 C 543.73 296.89 541.72 299.84 538.42 300.45 C 503.36 305.91 467.58 301.84 432.25 296.09 C 430.07 294.49 428.00 292.76 425.89 291.09 C 426.73 286.31 430.86 279.15 425.28 276.09 C 424.92 275.82 424.20 275.28 423.84 275.02 Z" />
</g>
<g id="#d5cd8bfd">
<path fill="#d5cd8b" opacity="1.00" d=" M 514.17 275.49 C 514.86 275.26 516.22 274.81 516.90 274.58 C 521.41 276.39 523.01 281.58 527.04 283.99 C 533.00 282.93 538.51 280.39 544.14 278.28 C 547.66 277.00 547.02 280.55 547.15 282.92 C 546.86 283.19 546.29 283.73 546.01 284.00 C 535.54 286.15 525.55 290.15 515.01 292.02 C 498.03 292.82 482.61 284.79 466.47 280.99 C 472.31 278.72 478.80 280.64 484.87 280.54 C 494.79 280.20 504.79 278.80 514.17 275.49 Z" />
</g>
<g id="#82673df4">
<path fill="#82673d" opacity="0.96" d=" M 425.28 276.09 C 430.86 279.15 426.73 286.31 425.89 291.09 C 421.77 288.97 417.56 286.76 414.63 283.05 C 418.35 281.30 425.18 282.03 425.28 276.09 Z" />
</g>
<g id="#9b8752f4">
<path fill="#9b8752" opacity="0.96" d=" M 429.85 283.74 C 432.70 280.98 436.03 278.43 440.02 277.70 C 447.64 283.19 457.75 284.69 466.47 280.99 C 482.61 284.79 498.03 292.82 515.01 292.02 C 512.75 293.53 510.88 295.55 509.66 297.99 C 482.63 296.20 456.21 289.61 429.85 283.74 Z" />
</g>
<g id="#1e1106fb">
<path fill="#1e1106" opacity="1.00" d=" M 397.17 279.80 C 405.56 303.64 408.51 329.10 414.77 353.56 C 411.15 353.98 408.38 355.91 409.75 360.50 C 402.83 355.89 394.12 358.09 396.05 367.95 C 392.82 366.48 389.06 363.50 386.07 367.05 C 380.03 372.94 375.13 361.57 368.52 364.55 C 354.86 365.96 336.34 370.46 328.22 355.91 C 330.98 366.71 319.25 365.96 312.66 369.14 C 312.27 369.05 311.51 368.86 311.12 368.77 C 304.56 367.43 297.32 364.73 290.79 367.57 C 290.44 367.67 289.74 367.86 289.39 367.96 C 280.82 354.57 261.17 361.00 248.05 357.32 L 247.48 357.08 C 234.27 351.04 217.17 351.73 202.76 354.32 C 202.17 354.30 200.99 354.24 200.40 354.21 C 195.44 350.85 189.20 350.75 183.83 353.19 C 182.49 352.44 181.16 351.70 179.82 350.99 C 176.78 344.76 185.17 342.94 189.04 340.15 C 192.86 337.98 196.62 334.31 201.46 336.54 C 218.21 338.97 235.39 337.60 252.01 339.94 C 268.34 348.06 287.25 344.74 304.61 346.18 C 318.95 349.31 335.91 347.44 349.38 340.37 C 355.51 337.60 361.40 343.14 367.69 341.98 C 370.57 338.85 370.14 333.81 373.03 330.85 C 376.60 330.08 381.67 336.94 381.47 330.37 C 386.78 328.06 394.70 328.97 400.32 325.34 C 400.02 310.47 393.65 295.00 397.17 279.80 Z" />
</g>
<g id="#ccc27ff4">
<path fill="#ccc27f" opacity="0.96" d=" M 240.22 328.17 C 252.68 317.65 252.04 299.66 252.58 284.95 C 253.34 290.06 253.31 295.53 255.43 300.30 C 255.58 308.47 257.38 316.50 256.96 324.71 C 253.80 339.33 237.50 328.19 227.44 332.51 C 215.14 323.88 200.48 335.45 186.81 329.75 C 191.03 326.16 196.61 324.89 201.73 323.12 C 205.29 333.96 216.61 322.81 220.49 317.65 C 220.02 321.40 219.25 327.80 224.79 326.99 C 226.20 321.02 225.58 314.96 225.15 308.94 C 232.98 306.57 228.85 325.01 234.04 319.08 C 237.94 312.60 238.88 326.00 240.22 328.17 Z" />
</g>
<g id="#4c4830f7">
<path fill="#4c4830" opacity="0.97" d=" M 129.87 314.11 C 124.34 309.44 134.29 296.14 136.43 305.79 C 143.39 312.45 148.92 320.52 155.77 327.36 C 161.11 333.75 169.74 335.55 177.49 337.14 C 181.17 338.68 184.98 340.14 189.04 340.15 C 185.17 342.94 176.78 344.76 179.82 350.99 C 179.15 351.06 177.83 351.20 177.17 351.26 C 162.46 342.37 142.01 339.23 135.72 321.48 C 128.31 323.63 134.93 316.95 129.87 314.11 Z" />
</g>
<g id="#ba9a58fd">
<path fill="#ba9a58" opacity="1.00" d=" M 434.85 302.95 C 448.77 307.91 469.26 303.62 477.83 317.95 C 475.02 320.63 467.52 319.13 463.73 322.57 C 459.20 322.77 454.70 322.93 450.19 322.89 C 448.00 322.30 445.89 321.36 444.99 319.13 C 444.51 312.37 438.03 308.43 434.85 302.95 Z" />
</g>
<g id="#5a3215f4">
<path fill="#5a3215" opacity="0.96" d=" M 379.08 312.07 C 380.93 305.05 387.07 315.41 385.92 318.45 C 378.40 315.32 380.77 322.74 384.13 322.83 C 389.55 323.58 395.46 322.31 400.32 325.34 C 394.70 328.97 386.78 328.06 381.47 330.37 C 381.67 336.94 376.60 330.08 373.03 330.85 C 378.71 327.24 372.89 317.01 379.08 312.07 Z" />
</g>
<g id="#9b723cfc">
<path fill="#9b723c" opacity="1.00" d=" M 435.56 323.43 C 431.25 314.23 441.02 314.26 444.99 319.13 C 445.89 321.36 448.00 322.30 450.19 322.89 C 440.34 322.88 453.23 332.24 455.08 336.84 C 455.92 343.50 463.34 341.07 466.85 343.07 C 449.32 338.02 461.09 355.69 465.26 362.70 C 467.82 366.82 470.50 375.14 476.34 370.28 C 483.37 369.39 488.44 346.66 491.82 359.96 C 486.40 371.93 501.92 367.66 506.88 374.64 C 513.91 370.14 506.16 361.08 505.12 355.01 C 511.55 356.87 520.36 356.82 520.45 348.26 C 525.90 350.36 539.47 356.00 533.39 345.64 C 531.26 334.89 517.70 345.91 514.49 337.74 C 527.50 336.65 540.74 338.99 553.84 337.54 C 558.93 339.19 562.03 347.31 558.03 351.46 C 554.24 348.24 549.49 333.69 548.19 346.20 C 544.91 340.88 544.56 348.44 542.94 351.00 C 537.36 360.99 529.03 370.02 523.79 379.86 C 517.27 375.43 508.74 378.30 501.16 378.07 C 511.78 385.85 500.41 390.14 491.87 388.27 C 500.77 394.61 495.09 402.72 488.10 407.27 C 474.74 408.73 467.43 395.04 457.51 388.47 C 453.19 383.30 458.87 376.91 458.79 371.33 C 456.70 366.40 453.52 372.72 450.93 374.08 C 449.69 368.93 455.58 365.00 456.75 360.09 C 446.39 349.34 450.11 330.86 435.56 323.43 Z" />
</g>
<g id="#4e250cf4">
<path fill="#4e250c" opacity="0.96" d=" M 429.28 323.05 C 437.71 321.24 431.80 331.76 437.21 333.81 C 441.83 338.85 434.71 351.76 444.65 352.44 C 450.29 354.62 446.71 366.55 440.63 363.42 C 429.69 358.30 440.67 338.97 429.26 335.12 C 422.86 346.75 431.78 361.04 425.91 372.91 C 425.52 376.97 421.26 378.39 420.03 373.94 C 417.41 365.12 422.44 356.14 420.95 347.17 C 408.95 349.36 418.96 337.53 420.51 332.42 C 426.47 334.01 429.63 327.94 429.28 323.05 Z" />
</g>
<g id="#ddc97afe">
<path fill="#ddc97a" opacity="1.00" d=" M 455.08 336.84 C 453.23 332.24 440.34 322.88 450.19 322.89 C 454.70 322.93 459.20 322.77 463.73 322.57 C 469.45 326.22 475.45 330.56 482.73 329.05 C 482.76 335.67 491.68 341.68 495.11 333.99 C 503.74 344.27 487.09 339.20 482.65 345.58 C 476.76 350.97 483.20 335.13 476.58 338.55 C 472.93 340.59 466.37 357.11 466.85 343.07 C 463.34 341.07 455.92 343.50 455.08 336.84 Z" />
</g>
<g id="#b7924ffd">
<path fill="#b7924f" opacity="1.00" d=" M 482.73 329.05 C 494.18 328.05 503.59 335.78 514.49 337.74 C 517.70 345.91 531.26 334.89 533.39 345.64 C 539.47 356.00 525.90 350.36 520.45 348.26 C 520.36 356.82 511.55 356.87 505.12 355.01 C 506.16 361.08 513.91 370.14 506.88 374.64 C 501.92 367.66 486.40 371.93 491.82 359.96 C 488.44 346.66 483.37 369.39 476.34 370.28 C 470.50 375.14 467.82 366.82 465.26 362.70 C 461.09 355.69 449.32 338.02 466.85 343.07 C 466.37 357.11 472.93 340.59 476.58 338.55 C 483.20 335.13 476.76 350.97 482.65 345.58 C 487.09 339.20 503.74 344.27 495.11 333.99 C 491.68 341.68 482.76 335.67 482.73 329.05 Z" />
</g>
<g id="#ceca96f4">
<path fill="#ceca96" opacity="0.96" d=" M 39.69 333.62 C 42.96 332.57 46.09 333.34 47.88 336.15 C 53.94 345.60 67.32 342.67 73.70 352.24 C 80.88 357.29 93.29 372.30 74.04 368.18 C 76.85 373.50 75.70 379.36 74.98 385.05 C 73.33 376.76 63.51 366.37 69.05 357.89 C 58.93 350.29 47.22 344.17 39.69 333.62 Z" />
</g>
<g id="#d0d09ff6">
<path fill="#d0d09f" opacity="0.96" d=" M 177.17 351.26 C 177.83 351.20 179.15 351.06 179.82 350.99 C 181.16 351.70 182.49 352.44 183.83 353.19 C 188.52 356.77 195.26 357.01 200.40 354.21 C 200.99 354.24 202.17 354.30 202.76 354.32 C 203.15 354.49 203.94 354.81 204.33 354.98 C 191.40 357.61 182.98 368.50 173.04 376.08 C 160.02 371.02 174.49 358.83 177.17 351.26 Z" />
</g>
<g id="#7a734aee">
<path fill="#7a734a" opacity="0.93" d=" M 183.83 353.19 C 189.20 350.75 195.44 350.85 200.40 354.21 C 195.26 357.01 188.52 356.77 183.83 353.19 Z" />
</g>
<g id="#8a8560e6">
<path fill="#8a8560" opacity="0.90" d=" M 202.76 354.32 C 217.17 351.73 234.27 351.04 247.48 357.08 C 233.47 356.92 218.73 354.57 204.33 354.98 C 203.94 354.81 203.15 354.49 202.76 354.32 Z" />
</g>
<g id="#8e855ae9">
<path fill="#8e855a" opacity="0.91" d=" M 248.05 357.32 C 261.17 361.00 280.82 354.57 289.39 367.96 C 287.92 371.04 286.62 374.22 284.85 377.15 C 280.19 374.80 285.53 368.03 283.13 364.69 C 278.36 362.20 272.62 362.63 267.44 361.59 C 261.90 358.49 253.61 362.28 248.05 357.32 Z" />
</g>
<g id="#dede9ffd">
<path fill="#dede9f" opacity="1.00" d=" M 247.90 377.81 C 249.41 367.34 261.85 368.64 267.44 361.59 C 272.62 362.63 278.36 362.20 283.13 364.69 C 285.53 368.03 280.19 374.80 284.85 377.15 C 286.62 374.22 287.92 371.04 289.39 367.96 C 289.74 367.86 290.44 367.67 290.79 367.57 C 296.95 368.41 303.19 369.16 309.11 371.19 C 310.45 382.12 300.11 388.77 296.17 397.89 C 298.89 400.99 299.36 405.12 294.97 406.96 C 282.61 409.99 288.90 396.35 289.02 388.94 C 284.25 389.90 280.15 393.39 275.19 393.36 C 272.97 389.75 270.20 386.51 267.07 383.68 C 266.07 390.10 270.32 399.10 263.83 403.62 C 261.93 404.19 263.00 398.18 260.03 399.01 C 255.83 400.36 261.02 410.74 255.48 409.58 C 248.31 406.35 242.96 412.19 241.98 418.65 C 237.71 417.30 233.14 417.31 228.94 418.92 C 228.99 414.21 228.45 409.40 229.75 404.82 C 234.59 402.99 241.56 404.35 244.67 399.67 C 243.65 391.98 248.25 387.27 254.68 383.75 C 259.00 380.28 250.18 379.44 247.90 377.81 Z" />
</g>
<g id="#7b714ddb">
<path fill="#7b714d" opacity="0.86" d=" M 290.79 367.57 C 297.32 364.73 304.56 367.43 311.12 368.77 C 310.44 369.57 309.77 370.38 309.11 371.19 C 303.19 369.16 296.95 368.41 290.79 367.57 Z" />
</g>
<g id="#bd9e59fc">
<path fill="#bd9e59" opacity="1.00" d=" M 316.76 370.36 C 325.55 369.19 335.02 364.39 342.72 371.71 C 352.55 382.14 349.83 397.77 350.91 410.83 C 351.84 416.34 337.90 425.26 340.71 415.77 C 342.25 411.20 336.65 411.58 335.98 415.97 C 330.37 425.94 317.13 421.52 308.92 427.69 C 307.89 427.95 306.88 428.28 305.89 428.65 C 300.25 423.71 302.04 417.87 307.25 413.28 C 310.80 407.47 317.62 394.86 326.04 401.94 C 329.69 409.01 332.86 387.63 327.21 393.21 C 322.83 398.89 316.54 392.99 317.02 387.16 C 317.50 380.12 330.57 385.68 327.06 376.01 C 327.22 370.16 320.85 371.27 316.76 370.36 Z" />
</g>
<g id="#9d6d3bfd">
<path fill="#9d6d3b" opacity="1.00" d=" M 342.72 371.71 C 349.63 367.67 361.57 365.27 365.85 374.02 C 368.26 384.20 383.16 376.58 390.14 382.71 C 390.32 394.38 381.94 402.98 370.08 405.97 C 365.27 405.88 369.29 397.24 364.93 397.97 C 348.22 396.74 371.48 410.97 364.96 417.75 C 354.63 420.49 345.88 428.12 334.52 426.55 C 332.86 430.37 336.39 435.97 340.85 434.91 C 351.58 427.76 365.08 430.83 377.09 427.05 C 378.57 436.83 371.30 443.88 361.95 440.15 C 362.00 446.15 366.43 451.72 371.45 454.69 C 379.57 455.26 385.00 445.53 393.63 448.17 C 395.45 452.92 398.17 457.73 398.04 462.97 C 391.80 462.11 384.10 460.87 380.23 467.31 C 387.28 469.66 413.95 474.37 404.42 489.43 C 403.25 499.96 420.23 502.37 420.99 512.91 C 419.09 519.94 406.89 515.18 405.91 521.98 C 402.23 535.08 425.20 527.05 422.33 539.23 C 415.95 539.11 408.28 534.97 402.91 539.97 C 398.66 545.41 407.26 551.61 403.56 556.48 C 396.05 553.15 396.73 565.06 390.42 562.56 C 385.71 561.39 378.61 558.69 376.34 564.69 C 380.30 569.34 379.35 577.31 372.53 578.38 C 365.04 576.43 364.19 583.98 361.54 588.59 C 358.26 592.84 354.90 597.13 353.08 602.24 C 351.55 603.39 350.07 604.59 348.60 605.82 C 325.49 607.29 300.48 609.13 278.79 601.78 C 301.36 600.47 326.66 599.30 344.33 583.26 C 346.75 575.68 341.00 568.06 342.15 560.26 C 344.96 557.06 349.88 562.89 352.96 558.93 C 365.12 555.65 355.15 544.77 359.90 537.08 C 353.62 531.79 330.34 541.04 333.06 524.97 C 333.18 518.14 337.60 510.30 333.86 503.97 C 326.99 505.81 321.31 511.41 314.11 512.01 C 309.42 510.41 310.14 504.74 310.72 500.78 C 312.33 494.42 299.48 497.79 301.14 491.20 C 304.32 483.97 306.47 475.75 313.09 470.88 C 312.43 464.93 306.36 471.50 302.79 470.71 C 298.02 471.34 300.82 464.77 300.17 461.71 C 300.53 463.15 300.91 464.59 301.36 466.03 C 308.41 460.48 311.07 451.48 317.12 445.06 C 319.98 442.44 323.02 439.94 325.38 436.83 C 321.13 434.01 315.75 436.04 311.13 436.34 C 307.10 435.82 309.69 430.48 308.92 427.69 C 317.13 421.52 330.37 425.94 335.98 415.97 C 336.65 411.58 342.25 411.20 340.71 415.77 C 337.90 425.26 351.84 416.34 350.91 410.83 C 349.83 397.77 352.55 382.14 342.72 371.71 Z" />
</g>
<g id="#d5c882fd">
<path fill="#d5c882" opacity="1.00" d=" M 309.11 371.19 C 309.77 370.38 310.44 369.57 311.12 368.77 C 311.51 368.86 312.27 369.05 312.66 369.14 C 314.01 369.58 315.36 370.04 316.76 370.36 C 320.85 371.27 327.22 370.16 327.06 376.01 C 330.57 385.68 317.50 380.12 317.02 387.16 C 316.54 392.99 322.83 398.89 327.21 393.21 C 332.86 387.63 329.69 409.01 326.04 401.94 C 317.62 394.86 310.80 407.47 307.25 413.28 C 302.04 417.87 300.25 423.71 305.89 428.65 C 296.30 434.34 293.84 419.09 292.15 412.83 C 290.63 409.72 291.42 407.46 294.97 406.96 C 299.36 405.12 298.89 400.99 296.17 397.89 C 300.11 388.77 310.45 382.12 309.11 371.19 Z" />
</g>
<g id="#51270df4">
<path fill="#51270d" opacity="0.96" d=" M 441.28 374.13 C 449.32 371.51 444.64 383.11 448.71 386.92 C 440.57 395.59 433.88 379.06 441.28 374.13 Z" />
</g>
<g id="#d7cb83fb">
<path fill="#d7cb83" opacity="1.00" d=" M 267.07 383.68 C 270.20 386.51 272.97 389.75 275.19 393.36 C 274.48 397.20 273.65 401.01 272.97 404.88 C 276.75 403.18 281.34 400.49 285.46 402.58 C 288.99 410.43 278.63 419.52 285.92 426.06 C 276.86 444.40 253.72 431.26 238.02 435.98 C 235.04 437.57 222.24 433.87 225.91 440.11 C 231.05 446.11 240.48 442.20 246.48 447.14 C 248.87 461.83 237.48 473.61 237.84 487.99 C 237.95 491.16 232.88 488.03 230.81 488.52 C 238.93 484.97 226.85 480.85 222.94 480.17 C 222.00 484.01 226.19 496.14 218.59 492.43 C 219.88 486.28 216.36 475.49 208.94 481.97 C 206.12 488.85 202.45 502.37 192.94 494.09 C 187.45 491.91 193.79 484.78 189.89 483.68 C 198.88 484.20 209.23 479.03 208.75 468.73 C 214.64 462.12 219.70 471.18 219.20 476.86 C 222.33 469.96 242.98 471.04 231.65 462.36 C 221.43 461.92 221.88 444.40 210.76 447.51 C 209.16 436.90 233.59 435.17 223.07 425.24 C 232.38 422.54 224.63 409.00 229.75 404.82 C 228.45 409.40 228.99 414.21 228.94 418.92 C 233.14 417.31 237.71 417.30 241.98 418.65 C 242.96 412.19 248.31 406.35 255.48 409.58 C 261.02 410.74 255.83 400.36 260.03 399.01 C 263.00 398.18 261.93 404.19 263.83 403.62 C 270.32 399.10 266.07 390.10 267.07 383.68 Z" />
</g>
<g id="#ac8c50fa">
<path fill="#ac8c50" opacity="0.98" d=" M 275.19 393.36 C 280.15 393.39 284.25 389.90 289.02 388.94 C 288.90 396.35 282.61 409.99 294.97 406.96 C 291.42 407.46 290.63 409.72 292.15 412.83 C 293.84 419.09 296.30 434.34 305.89 428.65 C 306.88 428.28 307.89 427.95 308.92 427.69 C 309.69 430.48 307.10 435.82 311.13 436.34 C 305.30 437.71 298.83 437.66 293.60 440.88 C 298.48 448.88 309.46 442.92 317.12 445.06 C 311.07 451.48 308.41 460.48 301.36 466.03 C 300.91 464.59 300.53 463.15 300.17 461.71 C 301.86 456.63 297.19 444.49 292.28 453.15 C 304.09 468.16 289.65 488.49 272.51 488.82 C 271.36 486.44 270.90 482.96 267.80 482.37 C 262.28 482.75 261.13 492.11 255.42 491.88 C 254.61 489.09 253.95 486.27 253.13 483.50 C 252.57 479.18 250.77 474.34 254.05 470.70 C 256.62 479.67 261.23 471.01 261.09 465.02 C 263.82 450.50 281.95 452.16 290.21 443.09 C 279.94 440.63 269.37 442.37 259.06 443.59 C 254.30 435.00 248.16 440.63 246.48 447.14 C 240.48 442.20 231.05 446.11 225.91 440.11 C 222.24 433.87 235.04 437.57 238.02 435.98 C 253.72 431.26 276.86 444.40 285.92 426.06 C 278.63 419.52 288.99 410.43 285.46 402.58 C 281.34 400.49 276.75 403.18 272.97 404.88 C 273.65 401.01 274.48 397.20 275.19 393.36 Z" />
</g>
<g id="#e2dc9dfc">
<path fill="#e2dc9d" opacity="1.00" d=" M 196.04 416.00 C 202.81 414.53 203.13 402.03 211.40 404.47 C 220.51 407.14 210.97 418.14 207.03 421.89 C 211.22 426.09 217.79 424.44 223.07 425.24 C 233.59 435.17 209.16 436.90 210.76 447.51 C 221.88 444.40 221.43 461.92 231.65 462.36 C 242.98 471.04 222.33 469.96 219.20 476.86 C 219.70 471.18 214.64 462.12 208.75 468.73 C 209.23 479.03 198.88 484.20 189.89 483.68 C 180.94 484.27 186.06 493.39 181.02 497.30 C 178.05 495.72 176.90 488.21 173.29 493.29 C 168.64 500.99 181.03 512.66 170.91 518.14 C 184.17 523.65 172.82 526.56 165.78 528.82 C 157.75 533.15 173.22 547.41 162.94 547.26 C 142.28 525.39 126.48 499.81 112.86 472.99 C 122.35 475.20 126.44 484.84 130.38 492.74 C 137.06 493.70 134.17 482.69 135.78 478.81 C 136.02 470.86 145.60 475.70 150.09 474.12 C 159.13 465.24 172.85 464.35 182.41 456.29 C 178.02 456.65 173.62 457.07 169.21 456.92 C 168.26 453.62 166.14 442.46 172.80 446.19 C 182.71 448.22 190.60 437.55 198.80 433.74 C 193.13 422.00 172.86 426.39 168.00 414.04 C 177.21 414.43 187.02 420.81 196.04 416.00 Z" />
</g>
<g id="#d8cb7afe">
<path fill="#d8cb7a" opacity="1.00" d=" M 311.13 436.34 C 315.75 436.04 321.13 434.01 325.38 436.83 C 323.02 439.94 319.98 442.44 317.12 445.06 C 309.46 442.92 298.48 448.88 293.60 440.88 C 298.83 437.66 305.30 437.71 311.13 436.34 Z" />
</g>
<g id="#90733ef4">
<path fill="#90733e" opacity="0.96" d=" M 246.48 447.14 C 248.16 440.63 254.30 435.00 259.06 443.59 C 249.65 448.87 253.50 461.88 254.05 470.70 C 250.77 474.34 252.57 479.18 253.13 483.50 C 252.46 487.67 251.99 502.04 244.27 496.69 C 243.03 495.56 241.76 494.85 241.21 496.96 C 243.38 488.47 230.08 491.70 230.81 488.52 C 232.88 488.03 237.95 491.16 237.84 487.99 C 237.48 473.61 248.87 461.83 246.48 447.14 Z" />
</g>
<g id="#dbce88fe">
<path fill="#dbce88" opacity="1.00" d=" M 259.06 443.59 C 269.37 442.37 279.94 440.63 290.21 443.09 C 281.95 452.16 263.82 450.50 261.09 465.02 C 261.23 471.01 256.62 479.67 254.05 470.70 C 253.50 461.88 249.65 448.87 259.06 443.59 Z" />
</g>
<g id="#b27a43fe">
<path fill="#b27a43" opacity="1.00" d=" M 292.28 453.15 C 297.19 444.49 301.86 456.63 300.17 461.71 C 300.82 464.77 298.02 471.34 302.79 470.71 C 306.36 471.50 312.43 464.93 313.09 470.88 C 306.47 475.75 304.32 483.97 301.14 491.20 C 299.48 497.79 312.33 494.42 310.72 500.78 C 310.14 504.74 309.42 510.41 314.11 512.01 C 321.31 511.41 326.99 505.81 333.86 503.97 C 337.60 510.30 333.18 518.14 333.06 524.97 C 330.34 541.04 353.62 531.79 359.90 537.08 C 355.15 544.77 365.12 555.65 352.96 558.93 C 349.88 562.89 344.96 557.06 342.15 560.26 C 341.00 568.06 346.75 575.68 344.33 583.26 C 326.66 599.30 301.36 600.47 278.79 601.78 C 264.58 605.80 250.14 601.51 236.13 598.86 C 226.49 596.65 223.27 586.26 216.02 581.02 C 220.59 571.80 202.59 564.24 212.79 555.77 C 226.04 548.24 212.10 536.52 210.64 526.33 C 202.58 504.20 238.51 515.20 241.21 496.96 C 241.76 494.85 243.03 495.56 244.27 496.69 C 251.99 502.04 252.46 487.67 253.13 483.50 C 253.95 486.27 254.61 489.09 255.42 491.88 C 261.13 492.11 262.28 482.75 267.80 482.37 C 270.90 482.96 271.36 486.44 272.51 488.82 C 289.65 488.49 304.09 468.16 292.28 453.15 Z" />
</g>
<g id="#63371cfa">
<path fill="#63371c" opacity="0.98" d=" M 449.32 471.85 C 447.63 466.30 453.24 466.66 456.90 467.97 C 450.96 477.28 460.02 486.58 460.90 495.85 C 458.82 500.49 456.12 504.62 464.22 504.12 C 461.65 513.69 449.79 488.80 452.49 507.45 C 450.66 502.02 448.12 495.37 441.11 498.90 C 442.58 491.74 443.77 484.50 445.94 477.49 C 438.44 479.24 443.69 468.42 449.32 471.85 Z" />
</g>
<g id="#be8e53fc">
<path fill="#be8e53" opacity="1.00" d=" M 208.94 481.97 C 216.36 475.49 219.88 486.28 218.59 492.43 C 226.19 496.14 222.00 484.01 222.94 480.17 C 226.85 480.85 238.93 484.97 230.81 488.52 C 230.08 491.70 243.38 488.47 241.21 496.96 C 238.51 515.20 202.58 504.20 210.64 526.33 C 212.10 536.52 226.04 548.24 212.79 555.77 C 202.59 564.24 220.59 571.80 216.02 581.02 C 206.44 576.55 191.58 575.94 186.99 564.90 C 190.23 565.42 195.14 570.13 197.25 566.02 C 187.87 557.81 175.55 548.95 175.09 535.26 C 181.38 530.09 190.37 532.86 197.78 531.98 C 196.62 522.92 190.11 515.99 184.97 508.91 C 185.44 503.08 192.23 507.71 195.23 508.94 C 194.74 503.94 193.92 499.00 192.94 494.09 C 202.45 502.37 206.12 488.85 208.94 481.97 Z" />
</g>
<g id="#cfa769fa">
<path fill="#cfa769" opacity="0.98" d=" M 181.02 497.30 C 186.06 493.39 180.94 484.27 189.89 483.68 C 193.79 484.78 187.45 491.91 192.94 494.09 C 193.92 499.00 194.74 503.94 195.23 508.94 C 192.23 507.71 185.44 503.08 184.97 508.91 C 190.11 515.99 196.62 522.92 197.78 531.98 C 190.37 532.86 181.38 530.09 175.09 535.26 C 175.55 548.95 187.87 557.81 197.25 566.02 C 195.14 570.13 190.23 565.42 186.99 564.90 C 177.76 560.95 169.99 554.23 162.94 547.26 C 173.22 547.41 157.75 533.15 165.78 528.82 C 172.82 526.56 184.17 523.65 170.91 518.14 C 181.03 512.66 168.64 500.99 173.29 493.29 C 176.90 488.21 178.05 495.72 181.02 497.30 Z" />
</g>
<g id="#6c3d21f9">
<path fill="#6c3d21" opacity="0.98" d=" M 426.10 524.26 C 428.60 517.90 430.22 511.24 432.63 504.86 C 439.70 505.74 454.49 505.55 449.32 517.12 C 450.94 528.91 442.37 513.95 438.38 519.71 C 433.84 518.35 430.27 522.99 426.10 524.26 Z" />
</g>
<g id="#8c5931fa">
<path fill="#8c5931" opacity="0.98" d=" M 402.91 539.97 C 408.28 534.97 415.95 539.11 422.33 539.23 L 423.21 539.31 C 417.13 541.45 417.26 547.52 423.01 549.97 C 416.85 549.34 405.61 548.95 412.57 556.46 C 416.43 563.04 403.12 562.50 402.67 568.86 C 406.43 567.67 410.09 566.01 414.13 565.94 C 411.57 571.23 410.38 577.64 402.50 575.63 C 389.27 576.49 382.29 593.24 368.65 590.68 C 362.95 593.75 359.94 601.12 353.08 602.24 C 354.90 597.13 358.26 592.84 361.54 588.59 C 364.19 583.98 365.04 576.43 372.53 578.38 C 379.35 577.31 380.30 569.34 376.34 564.69 C 378.61 558.69 385.71 561.39 390.42 562.56 C 396.73 565.06 396.05 553.15 403.56 556.48 C 407.26 551.61 398.66 545.41 402.91 539.97 Z" />
</g>
<g id="#5f3d2ed7">
<path fill="#5f3d2e" opacity="0.84" d=" M 116.70 553.08 C 120.31 551.36 124.48 553.19 125.25 556.87 C 122.35 555.74 119.24 554.93 116.70 553.08 Z" />
</g>
</svg>
